<svg xmlns="http://www.w3.org/2000/svg" xmlns:xlink="http://www.w3.org/1999/xlink" width="876" height="530" viewBox="0 0 657 397.5" xmlns:v="https://vecta.io/nano"><style><![CDATA[.B{fill:rgb(13.729858%,13.729858%,13.729858%)}.C{fill:rgb(0%,0%,0%)}.D{stroke:none}.E{fill:rgb(100%,67.059326%,0%)}.F{fill-rule:nonzero}.G{fill:rgb(97.24884%,83.529663%,78.42865%)}.H{fill:rgb(55.288696%,34.899902%,18.03894%)}]]></style><defs><filter id="A" x="0%" y="0%" width="100%" height="100%"><feColorMatrix in="SourceGraphic" values="0 0 0 0 1 0 0 0 0 1 0 0 0 0 1 0 0 0 1 0"/></filter><mask id="B"><g filter="url(#A)"><path d="M0 0h657v397.5H0z" fill-opacity=".2" class="C D"/></g></mask><clipPath id="C"><path d="M.242 56H631v327H.242zm0 0"/></clipPath><clipPath id="D"><path d="M0 0h632v384H0z"/></clipPath><g id="E" clip-path="url(#D)"><g clip-path="url(#C)"><path d="M630.656 56.277l-304.77 326.246L.285 78.355zm0 0" fill-opacity="1" class="D E F"/></g></g><mask id="F"><g filter="url(#A)"><path d="M0 0h657v397.5H0z" fill-opacity=".2" class="C D"/></g></mask><clipPath id="G"><path d="M1 49h631v326.848H1zm0 0"/></clipPath><clipPath id="H"><path d="M0 0h633v376H0z"/></clipPath><g id="I" clip-path="url(#H)"><g clip-path="url(#G)"><path d="M631.594 70.082l-325.98 305.059L1.16 49.805zm0 0" fill-opacity="1" class="D E F"/></g></g><clipPath id="J"><path d="M254.52 302H347v54.441h-92.48zm0 0"/></clipPath><clipPath id="K"><path d="M334 197.641h74V278h-74zm0 0"/></clipPath><clipPath id="L"><path d="M105.355 45.781h158.801v158.797H105.355zm0 0"/></clipPath><clipPath id="M"><path d="M417.992 38.844h158.801v158.797H417.992zm0 0"/></clipPath><path id="N" d="M515.32 151.539h-5.121v5.121h5.121v-5.121"/></defs><use xlink:href="#E" mask="url(#B)" x="10"/><use xlink:href="#I" mask="url(#F)" x="15"/><path d="M331.438 185.379l-4.496.113-4.488.328-4.465.551-4.434.77-4.391.988-4.336 1.199-4.27 1.41-4.199 1.621-4.113 1.82-4.016 2.023-3.918 2.219-3.801 2.406-3.676 2.59-3.547 2.77-3.406 2.938-3.258 3.102-3.105 3.258-2.937 3.41-2.766 3.543-2.594 3.68-2.406 3.801-2.219 3.914-2.02 4.02-1.824 4.113-1.621 4.199-1.41 4.27-1.199 4.336-.984 4.391-.77 4.434-.551 4.465-.332 4.484-.109 4.5.109 4.496.332 4.488.551 4.465.77 4.434.984 4.387 1.199 4.336 1.41 4.273 1.621 4.199 1.824 4.113 2.02 4.016 2.219 3.914 2.406 3.805 2.594 3.676 2.766 3.547 2.938 3.406 3.105 3.258 3.258 3.105 3.406 2.938 3.547 2.766 3.676 2.594 3.801 2.406 3.918 2.215 4.016 2.023 4.113 1.824 4.199 1.621 4.27 1.41 4.336 1.199 4.391.984 4.434.77 4.465.551 4.488.332 4.496.109 4.5-.109 4.484-.332 4.465-.551 4.434-.77 4.391-.984 4.336-1.199 4.27-1.41 4.199-1.621 4.113-1.824 4.02-2.023 3.914-2.215 3.801-2.406 3.676-2.594 3.547-2.766 3.41-2.937 3.258-3.105 3.102-3.258 2.938-3.406 2.77-3.547 2.59-3.676 2.406-3.805 2.219-3.914 2.023-4.016 1.82-4.113 1.621-4.199 1.41-4.273 1.199-4.336.988-4.387.77-4.434.551-4.465.328-4.488.113-4.496-.113-4.5-.328-4.484-.551-4.465-.77-4.434-.988-4.391-1.199-4.336-1.41-4.27-1.621-4.199-1.82-4.113-2.023-4.02-2.219-3.914-2.406-3.801-2.59-3.68-2.77-3.543-2.937-3.41-3.102-3.258-3.258-3.102-3.41-2.937-3.547-2.77-3.676-2.59-3.801-2.406-3.914-2.219-4.02-2.023-4.113-1.82-4.199-1.621-4.27-1.41-4.336-1.199-4.391-.988-4.434-.77-4.465-.551-4.484-.328-4.5-.113zm0 0" class="E"/><path d="M322.543 265.438c-.004.016-.008.031-.008.051-1.113 7.914-3.59 14.496-7.16 19.035-3.715 4.723-8.477 7.125-14.156 7.145-5.664-.02-10.426-2.422-14.141-7.145-3.574-4.539-6.047-11.121-7.16-19.035l-.012-.082c-.344-2.512-.07-5.07.734-7.477l.441-1.328a5.56 5.56 0 0 1 5.262-3.789h29.746c2.391 0 4.508 1.531 5.262 3.797l.461 1.391c.797 2.395 1.074 4.938.73 7.438zm4.418-4.793c.734-1.547 5.813-13.176-3.68-20.629 0 0 2.398-5.203-1.793-6.004-3.852-.734-17.629-10.574-35.316-2.582-5.23 2.363-9.41 6.648-11.406 12.039-1.926 5.207-1.785 10.672 1.07 16.672a9.83 9.83 0 0 0-.047.477 1.27 1.27 0 0 0-.246.012c-1.437.25-2.145 3.133-1.574 6.438.523 3.039 1.938 5.379 3.281 5.543 1.477 5.75 3.746 10.652 6.691 14.391 4.434 5.629 10.383 8.625 17.211 8.668v.004h.148v-.004c6.836-.047 12.781-3.043 17.211-8.668 2.945-3.738 5.211-8.641 6.691-14.391 1.344-.164 2.758-2.504 3.281-5.543.563-3.27-.121-6.121-1.523-6.422m-32.12 50.76l1.848 3.207-1.969 20.742 1.242 2.715h9.48l1.238-2.715-1.969-20.742 1.848-3.207 3.633-6.305c.668-1.164-.168-2.617-1.508-2.617l-7.57-1.52-8.395 1.52a1.75 1.75 0 0 0-1.512 2.617l3.633 6.305" class="B"/><g clip-path="url(#J)" class="B"><path d="M254.672 351.707l1.422-32.387c0-9.398 9.23-17.02 18.609-17.02h8.82l.957 20.078 8.957 19.625h14.523l8.953-19.625.961-20.078h8.816c9.383 0 18.613 7.621 18.613 17.02l1.418 32.387a4.52 4.52 0 0 1-4.512 4.723h-83.027c-2.566 0-4.625-2.148-4.512-4.723"/></g><g clip-path="url(#K)" class="B"><path d="M371.359 265.094c-1.781 0-3.531-.152-5.23-.449-2.457-.422-4.816-1.141-7.043-2.113l-4.77 4.18-5.102 4.477a.68.68 0 0 1-.785.117c-.285-.133-.43-.355-.43-.668v-16.34l-.23-.273a30.68 30.68 0 0 1-7.156-19.734c0-16.988 13.793-30.809 30.746-30.809s30.75 13.82 30.75 30.809-13.793 30.805-30.75 30.805zm25.855-56.711a36.29 36.29 0 0 0-25.855-10.73c-9.766 0-18.949 3.813-25.855 10.73s-10.707 16.121-10.707 25.906c0 7.844 2.445 15.316 6.977 21.535v14.813c0 2.77 1.563 5.203 4.082 6.344a6.96 6.96 0 0 0 2.902.641c1.637 0 3.25-.594 4.559-1.742l7.434-6.52c3.395 1.027 6.961 1.559 10.609 1.559 9.77 0 18.949-3.809 25.855-10.73a36.42 36.42 0 0 0 10.711-25.898 36.43 36.43 0 0 0-10.711-25.906"/></g><path d="M372.23 257.238c-2.844 0-5.156-2.312-5.156-5.164s2.313-5.168 5.156-5.168 5.156 2.316 5.156 5.168a5.16 5.16 0 0 1-5.156 5.164m2.965-26.297l-.023 10.59c0 1.617-1.316 2.93-2.926 2.922a2.93 2.93 0 0 1-2.918-2.93l.031-15.559 2.172-.062c2.398-.211 4.227-2.176 4.172-4.465-.055-2.324-1.918-4.191-4.238-4.242-2.281-.074-4.258 1.77-4.457 4.199-.086 1.086-1.004 1.934-2.086 1.934l-1.668-.004a2.09 2.09 0 0 1-1.523-.668 2.1 2.1 0 0 1-.559-1.574c.383-5.477 4.863-9.758 10.207-9.746h.012c5.582.02 10.141 4.582 10.16 10.176.012 4.141-2.469 7.801-6.355 9.43" class="B"/><path d="M261.594 125.18c0 42.441-34.398 76.84-76.84 76.84s-76.836-34.398-76.836-76.84 34.395-76.84 76.836-76.84 76.84 34.398 76.84 76.84" class="E"/><g class="G"><path d="M248.789 150.793v16.828c-2.812 4.273-6.094 8.273-9.707 11.887l-.539-.539v-28.176h-40.98v30.734h-10.246v-30.734a10.24 10.24 0 0 1 10.246-10.246h40.98c5.66 0 10.246 4.582 10.246 10.246"/><path d="M197.563 181.527h39.391c-4.203 3.922-8.867 7.355-13.879 10.246h-30.637a10.24 10.24 0 0 1-10.242-10.246h15.367"/></g><path d="M238.543 178.969l.539.539-2.102 2.02h-39.418v-30.734h40.98v28.176" class="H"/><path d="M207.805 117.496V86.762c0-2.824 2.313-5.125 5.125-5.125h35.117a75.86 75.86 0 0 1 13.469 40.98H235.98l-17.93 7.684v-7.684h-5.121c-2.812 0-5.125-2.301-5.125-5.121m-1.949 23.051h-8.293a10.24 10.24 0 0 0-10.246 10.246v20.488h-64.031a77.97 77.97 0 0 1-7.684-12.574v-10.656c0-7.191 4.992-13.445 12.035-15.008l11.145-2.48 10.117 22.793 12.805-12.809 12.805 12.809 10.117-22.793 11.145 2.48c4.402.973 7.984 3.793 10.086 7.504" class="B"/><path d="M184.625 130.563l-10.117 22.793-12.805-12.809 10.246-12.805 12.676 2.82m-33.168-2.82l10.246 12.805-12.805 12.809-10.117-22.793 12.676-2.82" class="G"/><path d="M130.969 86.762v-7.684c0-3.715.641-7.254 1.84-10.527 4.313-11.785 15.598-20.211 28.895-20.211 3.121 0 6.125.461 8.934 1.332 4.922 1.461 9.277 4.121 12.809 7.664a30.6 30.6 0 0 1 8.992 21.742v7.684l-.148.41c-.742-.281-1.562-.41-2.41-.41h-9.707c-6.023 0-11.965-.902-17.68-2.613-5.703-1.738-11.133-4.301-16.156-7.633a17.46 17.46 0 0 0-4.992 10.273l-.129-.027h-7.687c-.848 0-1.668.129-2.41.41l-.148-.41" class="B"/><path d="M192.289 87.172c-.742-.281-1.562-.41-2.41-.41h-9.707c-6.023 0-11.965-.902-17.68-2.613-5.703-1.738-11.133-4.301-16.156-7.633a17.46 17.46 0 0 0-4.992 10.273l-.129-.027h-7.687c-.848 0-1.668.129-2.41.41-1.148.359-2.172 1-3.02 1.84-1.383 1.379-2.254 3.301-2.254 5.434 0 4.25 3.434 7.684 7.684 7.684h7.688c0 5.664 2.309 10.785 5.992 14.496 1.281 1.281 2.742 2.383 4.332 3.281l-.082.152v7.684l10.246 12.805 10.246-12.805v-7.684l-.082-.152c3.152-1.801 5.766-4.383 7.555-7.531 1.77-2.992 2.773-6.504 2.773-10.246h7.684c2.129 0 4.051-.871 5.43-2.25a7.67 7.67 0 0 0 2.254-5.434c0-3.414-2.203-6.273-5.273-7.273" class="H"/><g clip-path="url(#L)" class="B"><path d="M251.348 158.035v-7.242a12.82 12.82 0 0 0-12.805-12.805h-31.285c-2.555-3.766-6.445-6.445-10.918-7.445l-21.832-4.852v-4.414c2.504-1.68 4.664-3.84 6.344-6.344h3.902c4.242 0 7.684-3.441 7.684-7.684v-2.922c4.402-1.148 7.684-5.121 7.684-9.883 0-3.773-2.07-7.043-5.121-8.824v-6.543c0-11.738-6.121-22.051-15.316-27.984a75.83 75.83 0 0 1 5.07-.191c23.555 0 44.555 11.027 58.172 28.176H212.93c-4.242 0-7.684 3.441-7.684 7.684v30.734c0 4.242 3.441 7.684 7.684 7.684h2.563v9.004l21.02-9.004h22.52c0 11.785-2.77 22.941-7.684 32.855zm-122.641 15.809h56.047v5.125h-5.121v2.559a12.82 12.82 0 0 0 12.805 12.809h19.371a73.97 73.97 0 0 1-27.055 5.121c-22.352 0-42.41-9.934-56.047-25.613zm-.18-97.168c-.062.801-.121 1.59-.121 2.402v6.543c-3.043 1.781-5.121 5.051-5.121 8.824 0 5.652 4.59 10.246 10.242 10.246h5.273c.77 6.902 4.594 12.895 10.098 16.586v4.414l-21.824 4.852a17.8 17.8 0 0 0-13.805 14.766c-1.801-6.41-2.793-13.156-2.793-20.129 0-17.848 6.504-35.086 18.051-48.504zm10.125 22.891h-5.125c-2.82 0-5.121-2.301-5.121-5.121s2.301-5.125 5.121-5.125h5.125zm48.664-5.121v5.121h-2.562V89.32h5.125c2.82 0 5.121 2.301 5.121 5.125 0 1.891-1.039 3.52-2.562 4.41v-4.41zm-2.711 10.246h2.711v2.559a2.57 2.57 0 0 1-2.562 2.563h-1.352a22.19 22.19 0 0 0 1.203-5.121zm-22.902 5.121v5.121h12.527c-3.234 3.164-7.656 5.125-12.527 5.125-9.887 0-17.93-8.047-17.93-17.93V88.883c0-3.305 1.063-6.434 3.031-9.027a63.33 63.33 0 0 0 32.828 9.465v12.809a17.84 17.84 0 0 1-1.75 7.684zm7.684 17.027l-7.684 9.605-7.684-9.605v-3c2.41.852 4.992 1.34 7.684 1.34s5.273-.488 7.684-1.34zm4.293 22.063l-8.543-8.543 7.813-9.777 8.074 1.801zm-23.223-18.32l7.816 9.777-8.547 8.543-7.344-16.52zm47.105 7.406a12.82 12.82 0 0 0-12.809 12.805v17.93h-60.121c-2.441-3.363-4.609-6.934-6.473-10.687v-9.992c0-6.043 4.125-11.187 10.027-12.496l9.094-2.023 10.785 24.281 13.637-13.637 13.637 13.637 10.785-24.281 9.094 2.023c1.883.418 3.602 1.277 5.094 2.441zm38.34 40.98h-35.781v-25.613h35.859v25.531c-.031.031-.059.051-.078.082zm-5.984 5.121c-2.41 1.859-4.941 3.57-7.586 5.121h-29.895c-3.34 0-6.184-2.141-7.242-5.121zm16.309-17.258a75.45 75.45 0 0 1-5.125 6.664V148.23H195v30.738h-5.121v-28.176c0-4.242 3.441-7.684 7.684-7.684h40.98c4.242 0 7.684 3.441 7.684 7.684zm-84.523-115.93c15.539 0 28.176 12.637 28.176 28.176v5.121h-5.125v-5.121h-5.121v5.121c-11.387-.109-22.391-3.492-31.875-9.816l-1.754-1.16-1.48 1.48a20.02 20.02 0 0 0-5.301 9.496h-5.695v-5.121c0-15.539 12.637-28.176 28.176-28.176zm51.227 69.156a2.57 2.57 0 0 1-2.562-2.562V86.762a2.57 2.57 0 0 1 2.563-2.562h33.738c6.91 10.414 11.266 22.672 12.164 35.859h-23.383l-14.836 6.363v-6.363zm-28.176-74.277a80.2 80.2 0 0 0-14.098 1.258c-2.852-.801-5.84-1.258-8.953-1.258-14.117 0-26.172 8.844-31.016 21.27-16.098 14.977-25.332 36.129-25.332 58.129 0 43.781 35.617 79.398 79.398 79.398s79.402-35.617 79.402-79.398-35.621-79.398-79.402-79.398"/></g><path d="M246.227 89.32h-30.734v5.125h30.734V89.32m0 10.246h-30.734v5.125h30.734v-5.125m-5.125 15.368h5.125v-5.121h-5.125v5.121m-5.122-5.121h-20.488v5.121h20.488v-5.121" class="B"/><path d="M466.168 156.27c7.914 8.156 18.98 13.199 31.227 13.199 17.105 0 31.914-9.855 39.027-24.234a13.14 13.14 0 0 0 3.133 5.125c.891.898 1.922 1.641 3.043 2.23l-1.664 6.633-4.91 1.41a17.92 17.92 0 0 0-13.02 17.238v6.754l-8.191 3.383-3.102-7.426c-.609-1.48-2.203-2.281-3.812-1.969 0 0-.031.027-.051.027-1.59.301-2.77 1.664-2.77 3.273v8.043h-15.367v-8.043c0-1.609-1.184-2.973-2.773-3.273-.02 0-.051-.027-.051-.027-1.609-.312-3.199.488-3.812 1.969l-3.102 7.426-8.191-3.383v-6.754c0-6.992-4.055-13.246-10.195-16.168-.902-.43-1.844-.789-2.824-1.07l-4.91-1.41 8.934-1.492c1.281-.199 2.41-.707 3.383-1.461M488 83.414c-15.988 3.504-28.668 15.797-32.77 31.547v.031a22.75 22.75 0 0 0-9.062-1.871 19.52 19.52 0 0 0-1.742.078c-.359-.719-.949-1.281-1.691-1.59l-7.453-3.102 5.895-14.187 7.422 3.07c1.512.641 3.203.051 4.102-1.281 0-.027.02-.047.02-.047.922-1.363.801-3.152-.359-4.305l-5.684-5.684 10.867-10.863 5.684 5.684c1.148 1.16 2.941 1.277 4.301.359 0 0 .031-.02.051-.02 1.332-.902 1.922-2.594 1.281-4.102l-3.074-7.426 11.477-4.742a16.79 16.79 0 0 0 .641 2.512c1.02 3.07 2.793 5.813 5.125 8.043l1.82 1.742A12.86 12.86 0 0 0 488 83.414m28.863-15.906c.281-.82.508-1.672.66-2.543L529 69.707l-3.074 7.426c-.641 1.508-.047 3.199 1.281 4.102a.13.13 0 0 1 .051.02c1.359.918 3.152.801 4.301-.359l5.684-5.684 10.867 10.863-5.684 5.684c-1.16 1.152-1.281 2.941-.359 4.305 0 0 .02.02.02.047.898 1.332 2.59 1.922 4.102 1.281l7.422-3.07 5.895 14.188-2.66 1.102v.027h-.031a10.42 10.42 0 0 0-5.633-1.641 10.58 10.58 0 0 0-6.223 2.023 10.78 10.78 0 0 0-3.891 5.27l-.133.391-.508.133a4.15 4.15 0 0 0-.621.18l-.02-.082c-3.824-16.207-16.699-28.914-32.996-32.496 1.57-1.699 2.672-3.82 3.148-6.152l.594-.492c2.918-2.398 5.102-5.582 6.301-9.164l.031-.098" fill="rgb(98.81897%,84.309387%,43.919373%)"/><path d="M516.832 67.605c-1.199 3.582-3.383 6.766-6.301 9.164l-.594.492c.184-.82.262-1.691.262-2.562v-3.742c0-3.762-2.711-6.961-6.434-7.574l-4.551-.75c-2.543-.43-4.383-2.609-4.383-5.172v-.18l-2 .41c-4.785.949-8.246 5.152-8.246 10.047v6.961c0 .871.082 1.742.262 2.563l-1.82-1.742c-2.332-2.23-4.105-4.973-5.125-8.043-.281-.82-.488-1.66-.641-2.512a19.82 19.82 0 0 1-.359-3.711v-2.352c0-4.645 1.84-9.094 5.121-12.375s7.734-5.125 12.379-5.125h5.98c4.645 0 9.098 1.844 12.379 5.125s5.121 7.73 5.121 12.375v2.352a19.82 19.82 0 0 1-.359 3.711c-.152.871-.379 1.723-.66 2.543l-.031.098" fill="rgb(69.799805%,47.44873%,27.449036%)"/><g fill="rgb(39.608765%,42.749023%,47.059631%)"><path d="M469.219 136.172v13.984a7.61 7.61 0 0 1-3.051 6.113c-.973.754-2.102 1.262-3.383 1.461l-8.934 1.492-1.66-6.633c4.039-2.152 6.781-6.402 6.781-11.297v-5.121l-1.66-1.102c-4-2.66-7.734-5.734-11.145-9.145v-12.805a22.75 22.75 0 0 1 9.063 1.871c2.723 1.148 5.172 2.84 7.227 4.891 4.172 4.152 6.762 9.934 6.762 16.289"/><path d="M446.168 113.121v12.805c-3.414 3.41-7.145 6.484-11.148 9.145l-1.66 1.102v5.121c0 3.531 1.434 6.734 3.742 9.066.891.898 1.922 1.641 3.043 2.23l-1.66 6.633-8.937-1.492a7.66 7.66 0 0 1-6.43-7.574v-13.984c0-12.137 9.395-22.102 21.309-22.973a19.52 19.52 0 0 1 1.742-.078m95.815 14.136a7.69 7.69 0 0 0-6.172 7.531v3.941l-1.359-1.359a12.88 12.88 0 0 1-3.762-9.094c0-5.684 3.738-10.645 9.113-12.285a4.15 4.15 0 0 1 .621-.18l.508-.133a15.13 15.13 0 0 0 3.582 9.785c.313.383.672.742 1.031 1.07l-3.562.723"/><path d="M556.844 109.637a10.59 10.59 0 0 1 4.453 5.652l.18.492a6.21 6.21 0 0 1 5.07 6.152v.301a8.79 8.79 0 0 1-5.121 7.992c-1.133.543-2.383.82-3.711.82h-.672c-.48 0-1-.047-1.48-.129l-2-.328c-3.121-.543-5.895-1.973-8.016-4.055-.359-.328-.719-.687-1.031-1.07a15.13 15.13 0 0 1-3.582-9.785l.133-.391a10.78 10.78 0 0 1 3.891-5.27 10.58 10.58 0 0 1 6.223-2.023 10.42 10.42 0 0 1 5.633 1.641h.031"/></g><g fill="rgb(100%,50.979614%,43.139648%)"><path d="M520.445 109.789v13.574h-23.051v-17.926l7.684-12.809 3.941 1.313a16.69 16.69 0 0 1 6.531 4.039 16.72 16.72 0 0 1 4.895 11.809"/><path d="M497.395 105.438v17.926H474.34v-13.574a16.72 16.72 0 0 1 4.895-11.809 16.69 16.69 0 0 1 6.531-4.039l3.945-1.312 7.684 12.809"/></g><g fill="rgb(30.979919%,75.689697%,91.369629%)"><path d="M548.617 195.082v-25.613l7.684-10.246 4.914 1.41c7.715 2.203 13.016 9.227 13.016 17.238v17.211h-25.613"/><path d="M548.617 169.469v25.613h-25.613v-17.211a17.92 17.92 0 0 1 13.02-17.238l4.91-1.41 7.684 10.246"/></g><path d="M471.781 184.625v10.457h-51.227v-17.211a17.91 17.91 0 0 1 10.195-16.168l5.172 7.766 10.246 15.367 10.246-15.367 5.172-7.766c6.141 2.922 10.195 9.176 10.195 16.168v6.754" fill="rgb(36.079407%,83.918762%,70.199585%)"/><path d="M456.414 169.469l-10.246 15.367-10.246-15.367zm0 0" fill="rgb(90.19928%,91.369629%,92.939758%)"/><g fill="rgb(94.119263%,81.568909%,70.588684%)"><path d="M461.586 161.703l-5.172 7.766h-20.492l-5.172-7.766a18.1 18.1 0 0 1 2.82-1.07l4.914-1.41 1.66-6.633c1.801.969 3.84 1.512 6.023 1.512a12.65 12.65 0 0 0 6.023-1.512l1.66 6.633 4.91 1.41c.98.281 1.922.641 2.824 1.07"/><path d="M458.973 136.172v5.121c0 4.895-2.742 9.145-6.781 11.297a12.65 12.65 0 0 1-6.023 1.512 12.63 12.63 0 0 1-6.023-1.512c-1.121-.59-2.152-1.332-3.043-2.23-2.309-2.332-3.742-5.535-3.742-9.066v-5.121l1.66-1.102a72.76 72.76 0 0 0 11.148-9.145c3.41 3.41 7.145 6.484 11.145 9.145l1.66 1.102m83.624 16.417l6.02 1.512a12.63 12.63 0 0 0 6.023-1.512l1.66 6.633-7.684 10.246-7.684-10.246 1.664-6.633"/><path d="M561.426 130.258v11.035c0 4.895-2.742 9.145-6.785 11.297-1.801.969-3.84 1.512-6.023 1.512l-6.02-1.512c-1.121-.59-2.152-1.332-3.043-2.23a13.14 13.14 0 0 1-3.133-5.125 12.88 12.88 0 0 1-.609-3.941v-6.504a7.69 7.69 0 0 1 6.172-7.531l3.563-.723c2.121 2.082 4.895 3.512 8.016 4.055l2 .328a9.02 9.02 0 0 0 1.48.129h.672c1.328 0 2.578-.277 3.711-.82v.031m-70.056-44.263l6.023 1.512c2.18 0 4.219-.543 6.02-1.512l1.664 6.633-7.684 12.809-7.684-12.809 1.66-6.633"/><path d="M510.199 70.957v3.742c0 .871-.078 1.742-.262 2.563-.477 2.332-1.578 4.453-3.148 6.152-.973 1.039-2.121 1.922-3.375 2.582-1.801.969-3.84 1.512-6.02 1.512l-6.023-1.512c-1.121-.59-2.152-1.332-3.043-2.23-.109-.102-.23-.23-.328-.352a12.86 12.86 0 0 1-3.152-6.152c-.18-.82-.262-1.691-.262-2.562v-6.961c0-4.895 3.461-9.098 8.246-10.047l2-.41v.18c0 2.563 1.84 4.742 4.383 5.172l4.551.75c3.723.613 6.434 3.813 6.434 7.574"/></g><g clip-path="url(#M)" class="C"><path d="M571.672 192.52H551.18v-22.203l6.113-8.141 3.23.918c6.566 1.871 11.148 7.945 11.148 14.777zm-46.105-14.648c0-6.832 4.582-12.906 11.145-14.777l3.234-.918 6.113 8.141v22.203h-20.492zm-9.383 6.805l-2.094-5.062c-1.078-2.59-3.891-4.043-6.73-3.504-2.812.563-4.844 3.004-4.844 5.805v5.484H492.27v-5.484c0-2.801-2.031-5.242-4.891-5.805-2.801-.559-5.605.914-6.684 3.504l-2.094 5.063-4.262-1.762v-5.043c0-7.461-4.152-14.207-10.453-17.789.668-.148 1.309-.367 1.91-.648 8.594 8.102 19.711 12.594 31.598 12.594 16.047 0 30.563-8.133 38.969-21.5a15.02 15.02 0 0 0 3.301 3.223l-.859 3.422-3.504 1c-8.742 2.5-14.855 10.594-14.855 19.699v5.043zm-46.965 7.844h-46.102v-14.648c0-5.203 2.668-9.945 6.832-12.754l16.219 24.332 16.219-24.332c4.172 2.809 6.832 7.551 6.832 12.754zm-43.543-42.363v-13.984c0-10.437 7.836-19.039 17.93-20.312v8.977c-3.082 2.98-6.434 5.723-10.004 8.105l-2.801 1.859v6.492c0 5.133 2.531 9.676 6.41 12.457l-.641 2.563-6.613-1.113c-2.48-.41-4.281-2.531-4.281-5.043zm18.031-40.93l-5.062-2.09 3.922-9.465 5.063 2.09c2.582 1.07 5.613.133 7.234-2.281 1.59-2.379 1.297-5.543-.684-7.523l-3.879-3.871 7.254-7.254 3.871 3.883c1.98 1.98 5.152 2.27 7.563.648 2.383-1.59 3.32-4.609 2.242-7.203l-2.094-5.062 6.406-2.66a22.29 22.29 0 0 0 5.703 8.934l1.309 1.242c.301 1.141.711 2.238 1.262 3.262-14.199 4.402-25.633 15.637-30.254 29.785a25.47 25.47 0 0 0-7.395-1.102c-.172 0-.34.02-.512.031-.551-.582-1.211-1.051-1.949-1.363zm35.758-50.336c0-3.98 1.551-7.734 4.371-10.555s6.574-4.371 10.555-4.371h6.004c3.98 0 7.734 1.551 10.555 4.371s4.371 6.574 4.371 10.555v2.371c0 1.844-.297 3.672-.918 5.543-.422 1.262-1.012 2.434-1.691 3.555-.281-4.754-3.754-8.707-8.516-9.508l-4.562-.758c-1.301-.211-2.238-1.32-2.238-2.641a2.68 2.68 0 0 1 1.48-2.402l2.219-1.109-2.281-4.586-2.23 1.113c-1.941.969-3.34 2.648-3.961 4.641l-.301.063a12.86 12.86 0 0 0-10.297 12.566v2.508c-.687-1.117-1.258-2.32-1.68-3.57-.578-1.75-.879-3.57-.879-5.414zm46.371 24.504c2.371 1.59 5.543 1.301 7.523-.68l3.875-3.883 7.254 7.254-3.883 3.871c-1.98 1.98-2.273 5.145-.652 7.566 1.594 2.379 4.613 3.32 7.203 2.238l5.063-2.09 3.582 8.633c-1.449-.551-3-.867-4.621-.867-4.133 0-7.914 1.93-10.363 5.051-4.863-13.629-15.988-24.332-29.848-28.613.531-1 .941-2.062 1.242-3.172 3.23-2.672 5.652-6.184 7.031-10.266l6.406 2.66-2.094 5.063c-1.078 2.594-.137 5.613 2.281 7.234zm38.152 38.531v.316a6.19 6.19 0 0 1-1.844 4.426c-1.168 1.168-2.742 1.82-4.402 1.82h-.687a6.56 6.56 0 0 1-1.07-.09l-1.992-.332c-5.953-.988-10.305-6.004-10.484-11.984 1.098-3.312 4.191-5.523 7.672-5.523 2.492 0 4.781 1.141 6.285 2.992-2.234.719-4.113 2.301-5.203 4.48l-.812 1.621 4.582 2.301.813-1.629c.641-1.281 1.93-2.082 3.52-2.082.973 0 1.871.379 2.551 1.059.691.691 1.074 1.621 1.074 2.625zm-30.176 9.574c-.34-1.023-.562-2.102-.562-3.223 0-3.871 2.184-7.312 5.484-9.066a17.69 17.69 0 0 0 2.219 5.684c-3.391.871-6.043 3.395-7.141 6.605zm-26.176-56.801c0 5.652-4.59 10.246-10.242 10.246s-10.246-4.594-10.246-10.246v-6.961c0-3.484 2.352-6.523 5.664-7.414a7.82 7.82 0 0 0 5.98 4.832l4.563.758c2.48.41 4.281 2.531 4.281 5.043zm-5.301 17.52l-4.941 8.234-4.945-8.234.691-2.762c1.352.391 2.773.609 4.254.609s2.898-.219 4.25-.609zm-2.383 13.926l6.266-10.434 1.988.66c2.074.691 3.984 1.871 5.535 3.422 2.672 2.672 4.141 6.223 4.141 10.004v11.008h-17.93zM488.57 95.711l6.262 10.434v14.66h-17.93v-11.008c0-3.781 1.473-7.332 4.141-10.004 1.551-1.551 3.465-2.73 5.535-3.422zm-30.258 17.918c4.234-13.395 15.32-23.922 28.957-27.395.367.332.758.641 1.168.922l-.871 3.48-2.609.883c-2.82.93-5.422 2.539-7.535 4.652-3.641 3.629-5.641 8.473-5.641 13.625v16.129h51.223v-16.129c0-5.152-2-9.996-5.641-13.625-2.113-2.113-4.711-3.723-7.535-4.664l-2.609-.871-.871-3.48a11.58 11.58 0 0 0 1.172-.922c13.996 3.563 25.191 14.418 29.215 28.254-5.176 2.563-8.605 7.824-8.605 13.789a15.27 15.27 0 0 0 4.523 10.906l.598.609v1.5c0 1.242.172 2.453.453 3.613-7.117 13.586-20.922 22-36.309 22-10.336 0-20.031-3.82-27.594-10.746 1.23-1.699 1.98-3.762 1.98-6.004v-13.984c0-9.727-5.453-18.211-13.469-22.543zm-2.551 42.684l-.641-2.562c3.883-2.781 6.414-7.324 6.414-12.457v-6.492l-2.801-1.859c-3.574-2.383-6.926-5.125-10.008-8.105v-8.977c10.098 1.273 17.93 9.875 17.93 20.313v13.984c0 2.512-1.801 4.633-4.281 5.043zm-9.594-26.824c3.02 2.832 6.293 5.414 9.734 7.715l.512.34v3.75c0 5.652-4.594 10.246-10.246 10.246s-10.246-4.594-10.246-10.246v-3.75l.512-.34c3.441-2.301 6.711-4.883 9.734-7.715zm5.461 42.539l-5.461 8.195-5.465-8.195zm3.414-5.121h-17.75l-2.621-3.93 5.941-1.703 1.301-5.223c1.352.391 2.773.609 4.254.609s2.902-.219 4.25-.609l1.301 5.223 5.945 1.703zm103.82-25.613c0 5.652-4.59 10.246-10.246 10.246s-10.242-4.594-10.242-10.246v-6.504a5.14 5.14 0 0 1 4.121-5.031l2.27-.449a17.72 17.72 0 0 0 8.387 3.813l1.988.328a11.2 11.2 0 0 0 1.902.16h.66.039c.383 0 .742-.07 1.121-.109zm-5.344 17.371l-4.902 6.543-4.902-6.543.652-2.613c1.352.391 2.77.609 4.25.609s2.902-.219 4.254-.609zm8.414-.492l-3.5-1-.859-3.422c3.883-2.781 6.414-7.324 6.414-12.457v-9.555a11.76 11.76 0 0 0 1.777-1.441c2.152-2.148 3.344-5.012 3.344-8.055v-.316a8.77 8.77 0 0 0-2.562-6.234 8.4 8.4 0 0 0-3.121-2.012c-.48-1.18-1.121-2.262-1.891-3.23l1.301-.543-7.844-18.93-9.797 4.063c-.34.141-.75-.008-1.008-.41-.242-.359-.223-.789.039-1.051l7.504-7.492-14.496-14.496-7.496 7.504c-.258.258-.687.277-1.098.008-.352-.23-.504-.641-.352-.98l4.051-9.793-12.066-5.004c.07-.691.172-1.371.172-2.062v-2.371c0-5.359-2.094-10.395-5.875-14.176-3.789-3.781-8.824-5.871-14.176-5.871h-6.004c-5.352 0-10.383 2.09-14.176 5.871-3.781 3.781-5.875 8.816-5.875 14.176v2.371c0 .691.102 1.371.172 2.063l-12.066 5.004 4.051 9.793c.152.34 0 .75-.398 1.012-.359.238-.781.219-1.051-.039l-7.492-7.504-14.488 14.496 7.492 7.492c.262.262.281.691.012 1.102-.242.352-.641.492-.98.359l-9.797-4.062-7.844 18.93 5.414 2.242c-9.797 3.602-16.809 12.996-16.809 24.023v13.984c0 4.793 3.293 8.848 7.895 9.926-6.305 3.582-10.457 10.328-10.457 17.789v19.77h56.348v-9.184l7.035 2.91 4.063-9.793c.141-.34.531-.531 1-.43.422.078.711.398.711.77v10.605h20.488v-10.605c0-.371.293-.691.773-.781.418-.078.797.102.938.441l4.063 9.793 7.035-2.91v9.184h56.348v-19.77c0-9.105-6.113-17.199-14.859-19.699"/></g><g class="C"><path d="M556.301 187.398h5.125v-5.125h-5.125v5.125m0-10.246h5.125v-5.125h-5.125v5.125m-51.223-25.613h-5.125v5.121h5.125v-5.121"/><use xlink:href="#N"/><use xlink:href="#N" x="-20.488"/><use xlink:href="#N" x="-30.734"/></g></svg>