<svg xmlns="http://www.w3.org/2000/svg" xmlns:xlink="http://www.w3.org/1999/xlink" width="1500" height="800" viewBox="0 0 1125 600" xmlns:v="https://vecta.io/nano"><style><![CDATA[.B{fill:rgb(0%,0%,0%)}.C{fill:rgb(70.979309%,16.079712%,16.079712%)}.D{stroke:none}.E{fill-opacity:.259}.F{fill-rule:nonzero}.G{fill:rgb(100%,67.059326%,0%)}.H{fill:rgb(70.588684%,86.669922%,49.798584%)}.I{fill:rgb(90.19928%,91.369629%,92.939758%)}.J{fill:rgb(94.119263%,81.568909%,70.588684%)}.K{fill:rgb(100%,50.979614%,43.139648%)}.L{fill:rgb(90.979004%,42.749023%,24.308777%)}.M{fill:rgb(97.24884%,83.529663%,78.42865%)}.N{fill-rule:evenodd}.O{fill:rgb(67.059326%,25.099182%,34.118652%)}]]></style><defs><filter id="A" x="0%" y="0%" width="100%" height="100%"><feColorMatrix in="SourceGraphic" values="0 0 0 0 1 0 0 0 0 1 0 0 0 0 1 0 0 0 1 0"/></filter><mask id="B"><g filter="url(#A)"><path d="M0 0h1125v600H0z" class="B D E"/></g></mask><clipPath id="C"><path d="M5 1h1028v402.281H5zm0 0"/></clipPath><clipPath id="D"><path d="M0 0h1035v404H0z"/></clipPath><g id="E" clip-path="url(#D)"><g clip-path="url(#C)"><path d="M5.402 165.641l9.004 237.598 1018.18-38.582-13.777-363.625zm0 0" fill-opacity="1" class="D F G"/></g></g><mask id="F"><g filter="url(#A)"><path d="M0 0h1125v600H0z" class="B D E"/></g></mask><clipPath id="G"><path d="M5 1h1028v402.398H5zm0 0"/></clipPath><clipPath id="H"><path d="M0 0h1035v404H0z"/></clipPath><g id="I" clip-path="url(#H)"><g clip-path="url(#G)"><path d="M5.402 165.641l9.004 237.598 1018.18-38.582-13.777-363.625zm0 0" fill-opacity="1" class="D F G"/></g></g><clipPath id="J"><path d="M430.848 137.766h324.75v324.75h-324.75zm0 0"/></clipPath><clipPath id="K"><path d="M85.25 214H348.5v191.527H85.25zm0 0"/></clipPath><clipPath id="L"><path d="M104 194.777h225V393H104zm0 0"/></clipPath><clipPath id="M"><path d="M928 319.074h91v100.859h-91zm0 0"/></clipPath><clipPath id="N"><path d="M829.359 320.344H921v99.59h-91.641zm0 0"/></clipPath><clipPath id="O"><path d="M826.82 180.063h195V375.57h-195zm0 0"/></clipPath><path id="P" d="M719.195 205.922c5.754 0 10.484 4.73 10.484 10.484s-4.73 10.484-10.484 10.484-10.484-4.73-10.484-10.484 4.73-10.484 10.484-10.484"/><path id="Q" d="M719.195 221.648c-2.887 0-5.242-2.355-5.242-5.242s2.355-5.242 5.242-5.242 5.242 2.355 5.242 5.242-2.355 5.242-5.242 5.242zm0-20.969c-8.684 0-15.73 7.043-15.73 15.727s7.047 15.727 15.73 15.727 15.727-7.043 15.727-15.727-7.043-15.727-15.727-15.727"/></defs><use xlink:href="#E" mask="url(#B)" x="62" y="142"/><use xlink:href="#I" mask="url(#F)" x="47" y="127"/><path d="M609.098 405.141v52.426H441.336v-52.426h26.211c.738 1.004 1.516 1.945 2.418 2.828 4.77 4.73 11.324 7.656 18.555 7.656h15.727v20.973h52.426v-31.457h52.426" fill="rgb(69.799805%,47.44873%,27.449036%)"/><path d="M548.234 330.863l-7.289 21.852-15.727-10.484-15.73 10.484-7.289-21.852c-8.133 3.133-15.422 7.945-21.484 14.051-11.387 11.363-18.41 27.094-18.41 44.5 0 5.918 1.945 11.363 5.242 15.727.738 1.004 1.516 1.945 2.418 2.828 4.77 4.73 11.324 7.656 18.555 7.656h26.211v-31.453h41.941v20.969h31.457v-15.727c0-26.645-16.527-49.375-39.895-58.551" class="H"/><path d="M556.672 405.141v31.457h-52.426v-20.973h15.727c8.707 0 15.73-7.023 15.73-15.727 0-4.363-1.781-8.293-4.609-11.121s-6.758-4.605-11.121-4.605h36.699v20.969" class="I"/><path d="M548.234 330.863l-7.289 21.852-15.727-10.484-15.73 10.484-7.289-21.852c7.125-2.848 14.887-4.363 23.02-4.363s15.891 1.516 23.016 4.363" fill="rgb(62.748718%,83.139038%,40.779114%)"/><path d="M531.094 388.777c2.828 2.828 4.609 6.758 4.609 11.121 0 8.703-7.023 15.727-15.73 15.727h-5.242v-31.453h5.242c4.363 0 8.297 1.781 11.121 4.605" class="J"/><path d="M740.164 331.746H614.34c-5.793 0-10.484-4.691-10.484-10.488V153.496c0-5.797 4.691-10.488 10.484-10.488h125.824a10.48 10.48 0 0 1 10.484 10.488v167.762a10.48 10.48 0 0 1-10.484 10.488" class="I"/><g class="J"><path d="M609.098 263.59c0 1.477-.164 2.828-.43 4.199-.715 3.664-2.457 6.922-4.812 9.645-3.828 4.344-9.441 7.129-15.727 7.129l-1.004-.164c.637-3.297 1.004-6.758 1.004-10.324v-31.453c5.754 0 10.996 2.355 14.848 6.121.941.941 1.762 2.008 2.559 3.156a20.93 20.93 0 0 1 3.563 11.691"/><path d="M550.387 324.391a51.96 51.96 0 0 1-14.684 2.109H514.73a51.96 51.96 0 0 1-14.684-2.109c-18.551-5.383-32.867-20.805-36.738-39.992a54.79 54.79 0 0 1-1.004-10.324v-52.426h1.945c11.633 0 22.793-4.402 31.293-12.309l.039-.059c8.297 7.801 19.414 12.367 31.313 12.367h40.262c11.594 0 20.973-9.379 20.973-20.969v73.395c0 3.566-.367 7.027-1.004 10.324-3.871 19.188-18.184 34.609-36.738 39.992"/><path d="M463.309 284.398l-1.004.164c-5.773 0-11.016-2.355-14.848-6.125-3.766-3.852-6.121-9.094-6.121-14.848 0-3.828 1.043-7.391 2.824-10.484 3.625-6.289 10.383-10.484 18.145-10.484v31.453a54.79 54.79 0 0 0 1.004 10.324"/></g><g class="K"><use xlink:href="#P"/><use xlink:href="#P" x="-41.941"/><use xlink:href="#P" x="-83.882"/></g><path d="M478.301 175.266c2.191-18.207 17.652-32.258 36.43-32.258h25.703c20.438 0 38.891 8.297 52.262 21.648 4.238 4.258 8.027 9.012 11.16 14.254 1.742 2.949 3.297 6.039 4.672 9.234 3.703 8.867 5.813 18.574 5.813 28.773 0 12.227-3.051 24.227-8.805 34.98-.797-1.148-1.617-2.215-2.559-3.156-3.852-3.766-9.094-6.121-14.848-6.121V200.68c0 11.59-9.379 20.969-20.973 20.969h-40.262c-11.898 0-23.016-4.566-31.313-12.367l-.039.059c-8.5 7.906-19.66 12.309-31.293 12.309h-1.945v20.973c-7.762 0-14.52 4.195-18.145 10.484-5.242-8.172-8.066-17.715-8.066-27.523a50.79 50.79 0 0 1 14.988-36.125c7.23-7.293 16.672-12.371 27.219-14.191" fill="rgb(39.608765%,42.749023%,47.059631%)"/><path d="M698.223 342.23v115.336h-20.969V342.23h20.969" class="H"/><path d="M677.254 342.23v115.336h-20.973V342.23h20.973" fill="rgb(98.81897%,84.309387%,43.919373%)"/><path d="M692.98 331.746l5.242 10.484h-41.941l5.242-10.484 8.133-16.305c1.473-2.844 4.402-4.668 7.598-4.668s6.121 1.824 7.598 4.668l8.129 16.305" fill="rgb(66.668701%,69.799805%,74.119568%)"/><g class="K"><use xlink:href="#P" y="83.883"/><use xlink:href="#P" x="-41.941" y="83.883"/><use xlink:href="#P" x="-83.882" y="83.883"/><path d="M504.246 284.563h41.941c0 5.754-2.355 10.996-6.125 14.844-3.848 3.77-9.09 6.125-14.844 6.125-11.594 0-20.973-9.379-20.973-20.969"/></g><path d="M551.43 247.883c-2.887 0-5.242-2.355-5.242-5.242h-10.484c0 8.664 7.043 15.727 15.727 15.727s15.727-7.062 15.727-15.727h-10.484c0 2.887-2.355 5.242-5.242 5.242m-41.944-5.242h-10.484c0 2.887-2.355 5.242-5.242 5.242s-5.242-2.355-5.242-5.242h-10.488a15.75 15.75 0 0 0 15.73 15.727c8.683 0 15.727-7.062 15.727-15.727m30.554 47.164c-2.172 6.102-7.984 10.484-14.824 10.484s-12.656-4.383-14.828-10.484zm-41.039-5.242c0 14.457 11.754 26.211 26.215 26.211s26.211-11.754 26.211-26.211v-5.246h-52.426v5.246" class="B"/><g clip-path="url(#J)" class="B"><path d="M745.406 321.258c0 2.891-2.355 5.242-5.242 5.242h-43.945l-6.68-13.391c-.324-.613-.777-1.129-1.187-1.699 2.867-2.848 4.629-6.781 4.629-11.121 0-8.684-7.043-15.727-15.727-15.727s-15.73 7.043-15.73 15.727c0 4.34 1.785 8.273 4.629 11.121-.41.57-.859 1.086-1.187 1.719l-6.676 13.371H614.34c-2.887 0-5.242-2.352-5.242-5.242v-42.105c3.258-4.34 5.242-9.707 5.242-15.543 0-4.258-1.125-8.23-2.906-11.773 5.324-10.855 8.152-22.836 8.152-34.937 0-14.254-3.852-27.625-10.488-39.199v-24.203c0-2.891 2.355-5.242 5.242-5.242h125.824c2.887 0 5.242 2.352 5.242 5.242zm-62.91 131.066V347.473h10.484v104.852zm-20.973-104.852h10.488v104.852h-10.488zm18.617-29.652l9.605 19.168h-24.984l9.605-19.168c1.082-2.234 4.688-2.234 5.773 0zm-8.129-17.531c0-2.887 2.355-5.242 5.242-5.242s5.242 2.355 5.242 5.242-2.355 5.242-5.242 5.242-5.242-2.355-5.242-5.242zm-78.641-26.191v-25.254c6.082 2.172 10.484 7.926 10.484 14.766 0 6.902-4.504 12.719-10.711 14.828.105-1.453.227-2.887.227-4.34zm-46.281 45.727l-.637-.223-.121.43c-3.441.777-6.965 1.25-10.629 1.25H514.73c-3.664 0-7.187-.473-10.629-1.25l-.121-.43-.637.223c-20.52-5.117-35.797-23.652-35.797-45.727v-47.309c10.219-.656 19.949-4.34 28.035-10.609 8.766 6.781 19.684 10.734 31.336 10.734h40.238c5.922 0 11.328-2.07 15.73-5.387v52.57c0 22.074-15.277 40.609-35.797 45.727zm35.797 69.609v10.465h-20.973v-41.941H551.43v20.973h-22.977l-9.031-18.086c-1.289-2.578-4.445-3.625-7.047-2.332-2.578 1.289-3.625 4.441-2.332 7.043l6.695 13.395h-17.734v-20.973H488.52v24.043l-8.949 8.93 7.414 7.434 8.949-8.949h13.555v20.949H488.52c-11.57 0-20.973-9.398-20.973-20.949 0-22.402 12.84-41.797 31.539-51.34l7.598 22.793 18.535-12.348 18.531 12.348 7.598-22.793c18.676 9.543 31.539 28.938 31.539 51.34zm-62.914 0c5.777 0 10.488 4.691 10.488 10.484 0 5.777-4.711 10.465-10.488 10.465zm-10.484 31.438h10.484c11.57 0 20.973-9.402 20.973-20.953 0-3.848-1.105-7.414-2.93-10.504h13.414v41.941h-41.941zm94.367 31.453H446.578v-41.941h18.555c5.754 6.43 14.09 10.488 23.387 10.488h10.484v20.969h62.91v-31.457h41.941zM541.621 334.16l-3.48 10.402-12.922-8.621-12.926 8.621-3.48-10.402c5.203-1.555 10.711-2.395 16.406-2.395a57.22 57.22 0 0 1 16.402 2.395zm-84.559-117.734v21.484c-4.504.922-8.52 3.09-11.855 6-2.52-5.754-3.871-11.98-3.871-18.328 0-25.293 20.582-45.875 45.871-45.875h27.523v-10.484h-27.523c-.715 0-1.414.082-2.109.102 4.32-12.367 16.035-21.07 29.633-21.07h25.723c37.844 0 68.645 30.801 68.645 68.645 0 8.887-1.801 17.715-5.16 25.926-3.07-2.336-6.633-4.094-10.566-4.914v-37.211h-10.484c0 8.664-7.047 15.727-15.73 15.727h-40.238c-17.574 0-33.117-11.223-38.664-27.891l-9.953 3.336c2.129 6.352 5.406 12.043 9.543 16.938-6.863 4.914-15.074 7.617-23.633 7.617zm-10.484 47.184c0-6.84 4.402-12.594 10.484-14.766v25.254c0 1.453.102 2.887.227 4.34-6.207-2.109-10.711-7.926-10.711-14.828zm293.586-125.844H614.34c-8.68 0-15.727 7.047-15.727 15.73v9.93c-14.477-15.727-35.16-25.66-58.16-25.66H514.73c-19.926 0-36.922 14.008-41.02 33.156-24.574 6.063-42.863 28.242-42.863 54.66 0 9.746 2.625 19.207 7.414 27.645a25.85 25.85 0 0 0-2.168 10.383c0 13.375 10.137 24.352 23.121 25.887 5.016 18.043 18.574 32.5 36.043 38.809-22.57 11.121-38.195 34.301-38.195 61.129 0 3.668.656 7.188 1.844 10.465h-22.812v62.91H614.34v-62.91h-20.969v-10.465c0-26.828-15.605-50.008-38.195-61.129 17.469-6.309 31.027-20.766 36.047-38.809 2.578-.309 5.078-.879 7.391-1.906v33.668c0 8.684 7.047 15.73 15.727 15.73h38.707L651.039 341v121.809h52.426V341l-2.004-4.012h38.703a15.74 15.74 0 0 0 15.73-15.73V153.496a15.74 15.74 0 0 0-15.73-15.73"/></g><g class="B"><path d="M630.07 158.738h-10.484v10.484h10.484v-10.484m10.485 10.485h94.367v-10.484h-94.367v10.484m-20.969 20.968h115.336v-10.484H619.586v10.484m10.484 26.215c0-2.887 2.355-5.242 5.242-5.242s5.242 2.355 5.242 5.242-2.355 5.242-5.242 5.242-5.242-2.355-5.242-5.242zm20.969 0c0-8.684-7.043-15.727-15.727-15.727s-15.727 7.043-15.727 15.727 7.043 15.727 15.727 15.727 15.727-7.043 15.727-15.727m20.973 0c0-2.887 2.355-5.242 5.242-5.242s5.242 2.355 5.242 5.242-2.355 5.242-5.242 5.242-5.242-2.355-5.242-5.242zm20.969 0c0-8.684-7.043-15.727-15.727-15.727s-15.73 7.043-15.73 15.727 7.047 15.727 15.73 15.727 15.727-7.043 15.727-15.727"/><use xlink:href="#Q"/><path d="M630.07 242.621h-10.484v10.484h10.484v-10.484m10.485 10.484h94.367v-10.484h-94.367v10.484m-20.969 20.969h115.336V263.59H619.586v10.484m15.727 31.457c-2.887 0-5.242-2.355-5.242-5.242s2.355-5.242 5.242-5.242 5.242 2.355 5.242 5.242-2.355 5.242-5.242 5.242zm0-20.969c-8.684 0-15.727 7.043-15.727 15.727s7.043 15.727 15.727 15.727 15.727-7.043 15.727-15.727-7.043-15.727-15.727-15.727"/><use xlink:href="#Q" y="83.883"/></g><path d="M216.875 402.23c-4.652 0-8.977-1.957-12.184-5.5l-.973-1.086H94.023c-3.02 0-5.484-2.461-5.484-5.484V223.316a5.5 5.5 0 0 1 5.484-5.488h245.703a5.5 5.5 0 0 1 5.484 5.488V390.16c0 3.023-2.465 5.484-5.484 5.484H230.031l-.973 1.086c-3.207 3.543-7.531 5.5-12.184 5.5zm0 0" class="L"/><g clip-path="url(#K)" class="C"><path d="M339.727 221.121c1.203 0 2.191.988 2.191 2.195v166.836c0 1.211-.988 2.199-2.191 2.199H228.563l-1.961 2.18c-2.555 2.84-6.008 4.406-9.727 4.406s-7.172-1.566-9.727-4.406l-1.961-2.18H94.023a2.2 2.2 0 0 1-2.191-2.191V223.316c0-1.207.988-2.195 2.191-2.195h245.703m0-6.586H94.023c-4.844 0-8.773 3.934-8.773 8.781v166.836a8.78 8.78 0 0 0 8.773 8.785H202.25c3.613 4.02 8.793 6.586 14.617 6.586s11.004-2.566 14.617-6.586h108.23a8.78 8.78 0 0 0 8.785-8.777V223.316c0-4.848-3.93-8.781-8.773-8.781zm0 0"/></g><path d="M213.254 389.059c-1.523-7.508-8.18-13.172-16.121-13.172h-88.848V198.07h91.039c7.996 0 15.031 7.609 15.102 7.688l2.438 2.719 2.461-2.715c.066-.078 7.035-7.691 15.102-7.691h91.039v177.816h-88.848c-7.941 0-14.594 5.664-16.121 13.172zm0 0" fill="rgb(100%,100%,100%)"/><g clip-path="url(#L)" class="C"><path d="M322.176 201.363v171.23h-85.559c-8.582 0-15.898 5.508-18.617 13.172h-2.258c-2.719-7.664-10.035-13.172-18.617-13.172h-85.551v-171.23h87.75c5.441 0 10.988 4.777 12.648 6.586l4.902 5.48 4.902-5.48c.059-.066 6.188-6.586 12.648-6.586h87.75m6.582-6.586h-94.332c-9.691 0-17.551 8.781-17.551 8.781s-7.859-8.781-17.551-8.781h-94.332V379.18h92.141c7.27 0 13.16 5.895 13.16 13.172h13.164c0-7.277 5.891-13.172 13.16-13.172h92.141zm0 0"/></g><path d="M234.426 201.363c-6.461 0-12.59 6.52-12.648 6.586l-4.902 5.48v172.336H218c2.719-7.664 10.035-13.172 18.617-13.172h85.559v-171.23zm0 0" class="M"/><path d="M160.934 234.293h-32.906a3.3 3.3 0 0 1-3.289-3.293 3.3 3.3 0 0 1 3.289-3.293h32.906a3.3 3.3 0 0 1 3.293 3.293 3.3 3.3 0 0 1-3.293 3.293zm0 26.344h-32.906a3.3 3.3 0 0 1-3.289-3.293 3.3 3.3 0 0 1 3.289-3.293h32.906a3.3 3.3 0 0 1 3.293 3.293 3.3 3.3 0 0 1-3.293 3.293zm0 26.344h-32.906c-1.809 0-3.289-1.484-3.289-3.293a3.3 3.3 0 0 1 3.289-3.293h32.906a3.3 3.3 0 0 1 3.293 3.293c0 1.809-1.48 3.293-3.293 3.293zm0 26.344h-32.906c-1.809 0-3.289-1.484-3.289-3.293a3.3 3.3 0 0 1 3.289-3.293h32.906a3.3 3.3 0 0 1 3.293 3.293c0 1.809-1.48 3.293-3.293 3.293zm0 26.34h-32.906a3.3 3.3 0 0 1-3.289-3.289 3.3 3.3 0 0 1 3.289-3.293h32.906a3.3 3.3 0 0 1 3.293 3.293 3.3 3.3 0 0 1-3.293 3.289zm19.746-105.371a3.3 3.3 0 0 1-3.293-3.293 3.3 3.3 0 0 1 3.293-3.293 3.3 3.3 0 0 1 3.289 3.293 3.3 3.3 0 0 1-3.289 3.293zm0 26.344a3.3 3.3 0 0 1-3.293-3.293 3.3 3.3 0 0 1 3.293-3.293 3.3 3.3 0 0 1 3.289 3.293 3.3 3.3 0 0 1-3.289 3.293zm0 52.688c-1.812 0-3.293-1.484-3.293-3.293a3.3 3.3 0 0 1 3.293-3.293 3.3 3.3 0 0 1 3.289 3.293c0 1.809-1.48 3.293-3.289 3.293zm13.16-79.031a3.3 3.3 0 0 1-3.289-3.293 3.3 3.3 0 0 1 3.289-3.293 3.3 3.3 0 0 1 3.293 3.293 3.3 3.3 0 0 1-3.293 3.293zm0 26.344a3.3 3.3 0 0 1-3.289-3.293 3.3 3.3 0 0 1 3.289-3.293 3.3 3.3 0 0 1 3.293 3.293 3.3 3.3 0 0 1-3.293 3.293zm0 26.344c-1.809 0-3.289-1.484-3.289-3.293a3.3 3.3 0 0 1 3.289-3.293 3.3 3.3 0 0 1 3.293 3.293c0 1.809-1.48 3.293-3.293 3.293zm0 26.344c-1.809 0-3.289-1.484-3.289-3.293a3.3 3.3 0 0 1 3.289-3.293 3.3 3.3 0 0 1 3.293 3.293c0 1.809-1.48 3.293-3.293 3.293zm0 26.34a3.3 3.3 0 0 1-3.289-3.289 3.3 3.3 0 0 1 3.289-3.293 3.3 3.3 0 0 1 3.293 3.293 3.3 3.3 0 0 1-3.293 3.289zm78.977-105.371H239.91a3.3 3.3 0 0 1-3.293-3.293 3.3 3.3 0 0 1 3.293-3.293h32.906a3.3 3.3 0 0 1 3.289 3.293 3.3 3.3 0 0 1-3.289 3.293zm0 26.344H239.91a3.3 3.3 0 0 1-3.293-3.293 3.3 3.3 0 0 1 3.293-3.293h32.906a3.3 3.3 0 0 1 3.289 3.293 3.3 3.3 0 0 1-3.289 3.293zm32.906-26.344A3.3 3.3 0 0 1 302.43 231a3.3 3.3 0 0 1 3.293-3.293 3.3 3.3 0 0 1 3.289 3.293 3.3 3.3 0 0 1-3.289 3.293zm0 26.344a3.3 3.3 0 0 1-3.293-3.293 3.3 3.3 0 0 1 3.293-3.293 3.3 3.3 0 0 1 3.289 3.293 3.3 3.3 0 0 1-3.289 3.293zm0 26.344c-1.812 0-3.293-1.484-3.293-3.293a3.3 3.3 0 0 1 3.293-3.293 3.3 3.3 0 0 1 3.289 3.293c0 1.809-1.48 3.293-3.289 3.293zm-13.164-52.691A3.3 3.3 0 0 1 289.27 231a3.3 3.3 0 0 1 3.289-3.293 3.3 3.3 0 0 1 3.293 3.293 3.3 3.3 0 0 1-3.293 3.293zm0 26.344a3.3 3.3 0 0 1-3.289-3.293 3.3 3.3 0 0 1 3.289-3.293 3.3 3.3 0 0 1 3.293 3.293 3.3 3.3 0 0 1-3.293 3.293zm-19.743 26.343H239.91c-1.812 0-3.293-1.484-3.293-3.293a3.3 3.3 0 0 1 3.293-3.293h32.906a3.3 3.3 0 0 1 3.289 3.293c0 1.809-1.48 3.293-3.289 3.293zm0 0" class="C"/><g clip-path="url(#M)" class="C"><path d="M928.055 354.219l35.906 62.934c.469.992 1.277 1.832 2.355 2.328 2.445 1.129 5.344.063 6.469-2.383l-4.426-2.043 4.418 2.039 12.113-26.238 28.328 2.363a4.87 4.87 0 0 0 3.035-.641c2.324-1.363 3.098-4.352 1.734-6.672l-.016.012-38.043-66.574-4.695.375c-.289 1.852-.371 4.805-.437 6.055-.414 8.004-.973 16.969-8.703 21.496-7.703 4.512-15.754.684-22.937-2.828-1.184-.578-4.117-2.094-5.937-2.715-1.254 1.434-3.016 4.152-3.754 5.234-1.672 2.457-3.422 5.004-5.41 7.258"/></g><g clip-path="url(#N)" class="C"><path d="M868.902 320.863l-38.234 65.055-.016-.012c-1.363 2.32-.586 5.309 1.734 6.672a4.87 4.87 0 0 0 3.031.641l28.332-2.363 12.113 26.238 4.418-2.039-4.426 2.043c1.129 2.445 4.023 3.512 6.469 2.383a4.85 4.85 0 0 0 2.359-2.328l36.094-61.41c-1.988-2.254-3.738-4.805-5.414-7.262l-3.75-5.23c-1.816.621-4.754 2.137-5.937 2.715-7.184 3.512-15.234 7.344-22.937 2.828-7.734-4.527-8.289-13.492-8.703-21.496-.066-1.25-.148-4.199-.437-6.059-1.344-.211-3.266-.309-4.695-.375"/></g><g clip-path="url(#O)" class="L N"><path d="M924.32 180.063c6.723 0 10.898 6.133 15.02 12.188 2.441 3.582 4.852 7.121 6.406 7.551 1.598.438 5.535-1.484 9.453-3.398 6.41-3.137 12.789-6.254 18.332-3.004 5.563 3.258 5.934 10.406 6.301 17.543.219 4.254.441 8.504 1.523 9.59s5.332 1.301 9.586 1.52c7.137.371 14.285.742 17.543 6.301 3.25 5.543.133 11.922-3.004 18.332-1.914 3.918-3.836 7.855-3.398 9.453.43 1.559 3.973 3.969 7.555 6.406 6.051 4.121 12.184 8.297 12.184 15.02s-6.133 10.898-12.184 15.02c-3.586 2.438-7.125 4.852-7.555 6.41-.437 1.594 1.484 5.531 3.398 9.449 3.137 6.414 6.254 12.789 3.004 18.336-3.258 5.559-10.406 5.926-17.539 6.297-4.258.223-8.504.438-9.59 1.523s-1.305 5.332-1.523 9.586c-.367 7.137-.738 14.285-6.301 17.543-5.543 3.246-11.922.133-18.332-3-3.918-1.914-7.855-3.84-9.453-3.402-1.555.43-3.965 3.973-6.406 7.555-4.121 6.051-8.297 12.184-15.02 12.184s-10.898-6.133-15.02-12.184c-2.437-3.582-4.852-7.125-6.406-7.555-1.598-.437-5.535 1.488-9.453 3.402-6.41 3.133-12.789 6.246-18.336 3-5.559-3.258-5.926-10.406-6.297-17.543-.219-4.254-.437-8.504-1.523-9.586s-5.332-1.301-9.586-1.523c-7.133-.371-14.285-.738-17.543-6.297-3.246-5.547-.129-11.922 3-18.336 1.918-3.918 3.84-7.855 3.402-9.449-.43-1.559-3.973-3.973-7.555-6.41-6.051-4.121-12.184-8.297-12.184-15.02s6.133-10.898 12.184-15.02c3.582-2.437 7.125-4.848 7.555-6.406.438-1.598-1.484-5.535-3.402-9.453-3.133-6.41-6.246-12.789-3-18.332 3.258-5.559 10.41-5.93 17.543-6.301 4.254-.219 8.504-.437 9.586-1.52s1.305-5.336 1.523-9.59c.371-7.137.738-14.285 6.297-17.543 5.547-3.246 11.922-.133 18.336 3.004 3.918 1.914 7.855 3.836 9.453 3.398 1.555-.43 3.969-3.969 6.406-7.551 4.121-6.055 8.297-12.187 15.02-12.187"/></g><g class="N"><path d="M924.32 210.641c18.48 0 35.211 7.492 47.32 19.602s19.602 28.844 19.602 47.32-7.492 35.211-19.602 47.32-28.84 19.602-47.32 19.602-35.207-7.492-47.32-19.602-19.598-28.84-19.598-47.32 7.488-35.207 19.598-47.32 28.84-19.602 47.32-19.602" class="O"/><path d="M964.746 237.137c-10.344-10.348-24.637-16.742-40.426-16.742a56.98 56.98 0 0 0-40.426 16.742c-10.344 10.348-16.746 24.637-16.746 40.426s6.402 30.082 16.746 40.426 24.641 16.746 40.426 16.746 30.082-6.402 40.426-16.746a56.98 56.98 0 0 0 16.742-40.426c0-15.789-6.395-30.078-16.742-40.426" class="M"/><path d="M961.457 262.141a4.88 4.88 0 0 0 0-6.895 4.88 4.88 0 0 0-6.895 0l-40.77 40.77-19.715-19.715c-1.902-1.898-4.992-1.898-6.895 0-1.902 1.906-1.902 4.992 0 6.898l23.133 23.133.031.027c1.902 1.906 4.988 1.906 6.891 0l44.219-44.219" class="O"/></g></svg>