<svg xmlns="http://www.w3.org/2000/svg" xmlns:xlink="http://www.w3.org/1999/xlink" width="876" height="530" viewBox="0 0 657 397.5" xmlns:v="https://vecta.io/nano"><style><![CDATA[.B{fill:rgb(90.979004%,42.749023%,24.308777%)}.C{fill:rgb(67.059326%,25.099182%,34.118652%)}.D{fill:rgb(70.979309%,16.079712%,16.079712%)}.E{fill-opacity:1}.F{fill:rgb(97.24884%,83.529663%,78.42865%)}.G{fill:rgb(100%,100%,100%)}]]></style><defs><clipPath id="A"><path d="M.414 0h656.172v397H.414zm0 0"/></clipPath><filter id="B" x="0%" y="0%" width="100%" height="100%"><feColorMatrix in="SourceGraphic" values="0 0 0 0 1 0 0 0 0 1 0 0 0 0 1 0 0 0 1 0"/></filter><mask id="C"><g filter="url(#B)"><path d="M0 0h657v397.5H0z" fill="rgb(0%,0%,0%)" fill-opacity=".149" stroke="none"/></g></mask><clipPath id="D"><path d="M0 0h648v335H0z"/></clipPath><g id="E" clip-path="url(#D)" stroke="none" fill-rule="nonzero"><path d="M635.266 260.531c.902 17.98-14.031 33.359-30.746 34.199L47.543 322.699c-4.703.234-9.453-.57-13.723-2.187 5.77 5.461 13.512 8.465 23.688 7.957l555.16-27.875c16.453-.828 29.352-15.059 28.527-31.477l-11.41-227.246c-.383-7.555-3.594-14.187-8.293-19.176 1.473 3.324 2.18 6.945 2.363 10.594zm0 0" class="B E"/><path d="M47.41 320.094l556.457-27.941c16.453-.828 29.352-15.059 28.527-31.477l-11.41-227.242c-.824-16.418-15.086-29.285-31.535-28.461L32.992 32.914c-16.453.824-29.352 15.059-28.527 31.473l11.41 227.246c.84 16.676 15.086 29.285 31.535 28.461zm0 0" fill="rgb(98.81897%,72.938538%,19.999695%)" class="E"/><path d="M617.77 16.352c-6.203-8.832-16.703-14.574-28.453-13.984L32.859 30.309C14.844 31.211.953 46.539 1.855 64.52l11.41 227.246c.535 10.684 6.23 19.801 14.363 25.402 6.203 8.832 16.703 14.574 30.555 13.879l554.355-27.836c18.016-.906 31.906-16.23 31.004-34.211l-11.41-227.246c-.535-10.684-6.23-19.801-14.363-25.402zM15.875 291.633L4.465 64.387c-.824-16.414 12.074-30.648 28.527-31.473L589.449 4.973c16.449-.824 30.711 12.043 31.535 28.461l11.41 227.242c.824 16.418-12.074 30.648-28.527 31.477L47.41 320.094c-16.449.824-30.695-11.785-31.535-28.461zm625.32-22.516c.824 16.418-12.336 30.664-28.789 31.488L58.055 328.441c-10.461.523-18.203-2.484-23.977-7.941 4.27 1.613 8.762 2.434 13.723 2.184l556.457-27.937c18.02-.906 31.91-16.234 31.008-34.215l-11.41-227.242c-.184-3.648-1.148-7.258-2.363-10.594 4.699 4.988 7.91 11.621 8.293 19.176zm0 0" class="E F"/></g><clipPath id="F"><path d="M403.473 103.348h218.727V268H403.473zm0 0"/></clipPath><clipPath id="G"><path d="M403.473 222h218.727v10H403.473zm0 0"/></clipPath><clipPath id="H"><path d="M475 271h76v39.84h-76zm0 0"/></clipPath><clipPath id="I"><path d="M476.672 119.59h75.656v96.629h-75.656zm0 0"/></clipPath><clipPath id="J"><path d="M200.172 111.219h174.496v174.492H200.172zm0 0"/></clipPath><clipPath id="K"><path d="M200.172 112H374v85H200.172zm0 0"/></clipPath><clipPath id="L"><path d="M40.113 154h140.824v102.176H40.113zm0 0"/></clipPath><clipPath id="M"><path d="M50 143.82h121V250H50zm0 0"/></clipPath><path id="N" d="M516.012 205.648h-27.234c-1.668 0-3.023-1.352-3.023-3.02s1.355-3.02 3.023-3.02h27.234c1.672 0 3.027 1.352 3.027 3.02s-1.355 3.02-3.027 3.02"/></defs><g clip-path="url(#A)" class="G"><path d="M.414 0h656.172v404.492H.414zm0 0"/><path d="M.414 0h656.172v397H.414zm0 0"/><path d="M.414 0h656.172v397H.414zm0 0"/></g><use xlink:href="#E" mask="url(#C)" x="6" y="33"/><g clip-path="url(#F)" class="D"><path d="M421.18 112.477c-4.613 0-8.367 3.754-8.367 8.379v128.781c0 4.617 3.754 8.379 8.367 8.379h183.355c4.609 0 8.363-3.762 8.363-8.379V120.855c0-4.625-3.754-8.379-8.363-8.379zm183.355 154.668H421.18c-9.645 0-17.488-7.855-17.488-17.508V120.855c0-9.656 7.844-17.512 17.488-17.512h183.355c9.641 0 17.484 7.855 17.484 17.512v128.781c0 9.652-7.844 17.508-17.484 17.508"/></g><g clip-path="url(#G)" class="D"><path d="M617.457 231.188H408.25c-2.516 0-4.559-2.043-4.559-4.566s2.043-4.566 4.559-4.566h209.207c2.52 0 4.563 2.047 4.563 4.566s-2.043 4.566-4.562 4.566"/></g><path d="M519.695 245.457c0-3.785-3.062-6.848-6.84-6.848s-6.84 3.063-6.84 6.848 3.063 6.848 6.84 6.848 6.84-3.066 6.84-6.848" class="D"/><g clip-path="url(#H)" class="D"><path d="M534.52 286.289v-14.832h-9.125v16.551c0 1.105.402 2.172 1.129 3.004l9.344 10.691h-46.055l8.813-10.129a4.59 4.59 0 0 0 1.121-3v-17.117h-9.121v15.41l-14.27 16.402c-1.176 1.348-1.453 3.262-.715 4.891s2.363 2.676 4.152 2.676h66.125c1.789 0 3.414-1.051 4.152-2.68s.461-3.547-.719-4.895l-14.832-16.973"/></g><g clip-path="url(#I)" class="F"><path d="M547.793 119.59h-66.586a4.53 4.53 0 0 0-4.531 4.523v87.582a4.53 4.53 0 0 0 4.531 4.523h66.586a4.53 4.53 0 0 0 4.531-4.523v-87.582a4.53 4.53 0 0 0-4.531-4.523"/></g><path d="M541.07 196.574c-.43-.43-1-.664-1.605-.664a2.27 2.27 0 0 0-1.609.664l-5.809 5.793-2.285-2.281c-.43-.43-1-.664-1.609-.664s-1.176.234-1.605.66a2.27 2.27 0 0 0-.004 3.207l3.898 3.887c.43.43 1 .664 1.605.664.598 0 1.184-.238 1.605-.66l7.418-7.398a2.27 2.27 0 0 0 0-3.207" class="B"/><use xlink:href="#N" class="C"/><path d="M541.07 179.965a2.27 2.27 0 0 0-1.605-.664c-.605 0-1.176.238-1.609.664l-5.809 5.793-2.285-2.281c-.43-.426-1-.664-1.609-.664s-1.176.234-1.605.664a2.27 2.27 0 0 0-.004 3.207l3.898 3.887a2.27 2.27 0 0 0 1.605.664c.598 0 1.184-.242 1.605-.664l7.418-7.398a2.27 2.27 0 0 0 0-3.207" class="B"/><use xlink:href="#N" y="-16.605" class="C"/><path d="M541.07 163.359a2.26 2.26 0 0 0-1.605-.668c-.605 0-1.176.238-1.609.664l-5.809 5.797-2.285-2.285c-.43-.426-1-.664-1.609-.664a2.27 2.27 0 0 0-1.609 3.871l3.898 3.887c.43.43 1 .664 1.605.664a2.3 2.3 0 0 0 1.605-.66l7.418-7.402c.883-.883.887-2.32 0-3.203" class="B"/><path d="M516.398 172.434h-27.234a3.02 3.02 0 0 1-3.023-3.02 3.02 3.02 0 0 1 3.023-3.02h27.234c1.672 0 3.027 1.352 3.027 3.02s-1.355 3.02-3.027 3.02" class="C"/><path d="M523.813 142.484l2.793-5.574 2.793 5.574zm16.09 7.461l-10.59-21.137a3.03 3.03 0 0 0-2.707-1.668 3.02 3.02 0 0 0-2.707 1.668l-10.594 21.137c-.746 1.492-.141 3.305 1.355 4.051a3.03 3.03 0 0 0 4.059-1.348l2.066-4.125h11.637l2.066 4.125a3.03 3.03 0 0 0 2.711 1.668c.453 0 .914-.102 1.348-.32 1.496-.746 2.102-2.559 1.355-4.051" class="B"/><g clip-path="url(#J)"><path d="M374.668 198.465c0 48.184-39.062 87.246-87.246 87.246s-87.25-39.062-87.25-87.246 39.066-87.246 87.25-87.246 87.246 39.063 87.246 87.246" fill="rgb(100%,79.998779%,30.198669%)"/></g><path d="M287.422 213.008c-17.562 0-29.215-2.047-43.625-4.848-3.289-.637-9.695 0-9.695 9.691 0 19.391 22.273 43.625 53.32 43.625 31.039 0 53.316-24.234 53.316-43.625 0-9.691-6.402-10.332-9.691-9.691-14.41 2.801-26.062 4.848-43.625 4.848zm0 0" fill="rgb(39.99939%,27.059937%,0%)"/><path d="M243.797 217.852s14.543 4.848 43.625 4.848 43.625-4.848 43.625-4.848-9.695 19.391-43.625 19.391-43.625-19.391-43.625-19.391zm0 0" class="G"/><g clip-path="url(#K)"><path d="M276.188 132.605l-22.016 3.883-11.344-20.613a6.07 6.07 0 0 0-6.359-3.043c-2.555.449-4.543 2.477-4.937 5.035l-3.613 23.25L205.902 145c-2.594.457-4.594 2.547-4.949 5.16s1.023 5.152 3.41 6.285l19.727 9.363-3.625 23.324c-.402 2.598.914 5.16 3.262 6.348.867.434 1.797.645 2.723.645 1.586 0 3.152-.621 4.32-1.805l17.023-17.262 21.898 10.398c2.375 1.125 5.207.598 7.008-1.32a6.05 6.05 0 0 0 .898-7.07l-11.383-20.687 15.34-15.551a6.07 6.07 0 0 0 1.055-7.07c-1.23-2.336-3.844-3.602-6.422-3.152zm22.469 0l22.016 3.883 11.344-20.613a6.07 6.07 0 0 1 6.359-3.043c2.547.449 4.535 2.477 4.934 5.035l3.609 23.25L368.934 145a6.05 6.05 0 0 1 4.949 5.152 6.07 6.07 0 0 1-3.406 6.289l-19.727 9.363 3.625 23.324c.402 2.598-.918 5.156-3.262 6.344a6.04 6.04 0 0 1-2.727.645 6.06 6.06 0 0 1-4.316-1.801l-17.023-17.262-21.898 10.398a6.07 6.07 0 0 1-7.012-1.32c-1.801-1.914-2.16-4.77-.895-7.07l11.379-20.684-15.34-15.551c-1.852-1.875-2.273-4.734-1.051-7.07 1.234-2.336 3.848-3.602 6.426-3.152zm0 0" fill="rgb(91.369629%,37.249756%,15.689087%)"/></g><path d="M110.523 254.422c-2.488 0-4.801-1.043-6.516-2.934l-.52-.578H44.805c-1.613 0-2.93-1.312-2.93-2.926v-88.953c0-1.609 1.316-2.922 2.93-2.922h131.438c1.617 0 2.934 1.313 2.934 2.922v88.953c0 1.613-1.316 2.926-2.934 2.926h-58.68l-.523.578c-1.711 1.891-4.027 2.934-6.516 2.934zm0 0" class="B"/><g clip-path="url(#L)" class="C"><path d="M176.242 157.863c.645 0 1.172.527 1.172 1.168v88.949c0 .648-.527 1.176-1.172 1.176h-59.465l-1.051 1.16c-1.363 1.516-3.215 2.348-5.203 2.348s-3.836-.832-5.203-2.348l-1.047-1.16H44.805c-.645 0-1.172-.527-1.172-1.172v-88.953c0-.641.527-1.168 1.172-1.168h131.438m0-3.512H44.805a4.69 4.69 0 0 0-4.691 4.68v88.949c0 2.59 2.102 4.684 4.691 4.684h57.898c1.93 2.145 4.703 3.512 7.816 3.512s5.887-1.367 7.82-3.512h57.895c2.598 0 4.703-2.094 4.703-4.68v-88.953c0-2.582-2.105-4.68-4.695-4.68zm0 0"/></g><path d="M108.586 247.398a8.81 8.81 0 0 0-8.625-7.023H52.434v-94.801h48.703c4.277 0 8.039 4.055 8.078 4.098l1.301 1.449 1.316-1.445c.035-.043 3.766-4.102 8.082-4.102h48.699v94.801h-47.527a8.81 8.81 0 0 0-8.625 7.023zm0 0" class="G"/><g clip-path="url(#M)" class="C"><path d="M166.852 147.328v91.293h-45.766c-4.59 0-8.504 2.934-9.961 7.023h-1.207c-1.453-4.09-5.367-7.023-9.961-7.023H54.195v-91.293h46.941c2.91 0 5.879 2.547 6.766 3.512l2.621 2.922 2.625-2.922c.031-.035 3.309-3.512 6.766-3.512h46.938m3.523-3.508h-50.461c-5.187 0-9.391 4.68-9.391 4.68s-4.203-4.68-9.387-4.68H50.676v98.313h49.285c3.891 0 7.043 3.141 7.043 7.023h7.039c0-3.883 3.152-7.023 7.043-7.023h49.289zm0 0"/></g><path d="M119.914 147.328c-3.457 0-6.734 3.477-6.766 3.512l-2.625 2.922v91.883h.602c1.457-4.09 5.371-7.023 9.961-7.023h45.766v-91.293zm0 0" class="F"/><path d="M80.598 164.887H62.996c-.969 0-1.762-.789-1.762-1.758a1.76 1.76 0 0 1 1.762-1.754h17.602c.969 0 1.762.789 1.762 1.754s-.793 1.758-1.762 1.758zm0 14.043H62.996c-.969 0-1.762-.789-1.762-1.754s.793-1.758 1.762-1.758h17.602c.969 0 1.762.793 1.762 1.758s-.793 1.754-1.762 1.754zm0 14.047H62.996c-.969 0-1.762-.793-1.762-1.758s.793-1.754 1.762-1.754h17.602c.969 0 1.762.789 1.762 1.754s-.793 1.758-1.762 1.758zm0 14.043H62.996c-.969 0-1.762-.789-1.762-1.754s.793-1.758 1.762-1.758h17.602c.969 0 1.762.793 1.762 1.758s-.793 1.754-1.762 1.754zm0 14.047H62.996c-.969 0-1.762-.793-1.762-1.758s.793-1.754 1.762-1.754h17.602c.969 0 1.762.789 1.762 1.754s-.793 1.758-1.762 1.758zm10.563-56.18a1.76 1.76 0 0 1-1.758-1.758 1.76 1.76 0 0 1 1.758-1.754c.969 0 1.762.789 1.762 1.754s-.793 1.758-1.762 1.758zm0 14.043a1.76 1.76 0 0 1-1.758-1.754c0-.965.789-1.758 1.758-1.758s1.762.793 1.762 1.758-.793 1.754-1.762 1.754zm0 28.09a1.76 1.76 0 0 1-1.758-1.754c0-.965.789-1.758 1.758-1.758s1.762.793 1.762 1.758-.793 1.754-1.762 1.754zm7.043-42.133c-.969 0-1.762-.789-1.762-1.758a1.76 1.76 0 0 1 3.52 0 1.76 1.76 0 0 1-1.758 1.758zm0 14.043c-.969 0-1.762-.789-1.762-1.754s.793-1.758 1.762-1.758 1.758.793 1.758 1.758a1.76 1.76 0 0 1-1.758 1.754zm0 14.047c-.969 0-1.762-.793-1.762-1.758s.793-1.754 1.762-1.754a1.76 1.76 0 0 1 1.758 1.754c0 .965-.789 1.758-1.758 1.758zm0 14.043c-.969 0-1.762-.789-1.762-1.754s.793-1.758 1.762-1.758 1.758.793 1.758 1.758a1.76 1.76 0 0 1-1.758 1.754zm0 14.047c-.969 0-1.762-.793-1.762-1.758s.793-1.754 1.762-1.754a1.76 1.76 0 0 1 1.758 1.754c0 .965-.789 1.758-1.758 1.758zm42.246-56.18h-17.602c-.969 0-1.762-.789-1.762-1.758a1.76 1.76 0 0 1 1.762-1.754h17.602c.969 0 1.762.789 1.762 1.754s-.793 1.758-1.762 1.758zm0 14.043h-17.602c-.969 0-1.762-.789-1.762-1.754s.793-1.758 1.762-1.758h17.602c.969 0 1.762.793 1.762 1.758s-.793 1.754-1.762 1.754zm17.602-14.043a1.76 1.76 0 0 1-1.758-1.758 1.76 1.76 0 0 1 1.758-1.754c.969 0 1.762.789 1.762 1.754s-.793 1.758-1.762 1.758zm0 14.043a1.76 1.76 0 0 1-1.758-1.754c0-.965.789-1.758 1.758-1.758s1.762.793 1.762 1.758-.793 1.754-1.762 1.754zm0 14.047c-.969 0-1.758-.793-1.758-1.758a1.76 1.76 0 0 1 1.758-1.754c.969 0 1.762.789 1.762 1.754s-.793 1.758-1.762 1.758zm-7.04-28.09c-.969 0-1.762-.789-1.762-1.758a1.76 1.76 0 1 1 3.52 0 1.76 1.76 0 0 1-1.758 1.758zm0 14.043c-.969 0-1.762-.789-1.762-1.754s.793-1.758 1.762-1.758 1.758.793 1.758 1.758a1.76 1.76 0 0 1-1.758 1.754zm-10.563 14.047h-17.602c-.969 0-1.762-.793-1.762-1.758s.793-1.754 1.762-1.754h17.602c.969 0 1.762.789 1.762 1.754s-.793 1.758-1.762 1.758zm0 0" class="C"/></svg>