<svg xmlns="http://www.w3.org/2000/svg" viewBox="0 0 125.114 35.43" width="125.114" height="35.431" xmlns:v="https://vecta.io/nano"><path d="M22.292 15.219h2.011c.841 0 1.817-.135 2.414-.37 1.464-.597 2.044-2.002 2.044-3.777 0-1.725-.606-3.028-1.884-3.617-.589-.286-1.464-.379-2.414-.379h-2.17zm.74-.723V7.799h1.565c.782 0 1.573.126 2.019.387.976.564 1.363 1.716 1.363 2.885 0 1.472-.48 2.566-1.422 3.045-.53.261-1.439.379-2.061.379zm12.425.707l-.067-.589c-.109.025-.227.034-.37.034-.185 0-.328-.067-.421-.244-.084-.143-.093-.404-.093-.707v-2.011c0-.488 0-.909-.118-1.295-.236-.824-.909-1.203-2.036-1.203-1.649 0-2.473.749-2.473 2.103l.681.042c.042-1.338.925-1.472 1.741-1.472.892 0 1.211.395 1.363.715.084.185.143.614.143 1.026v.244h-.69c-1.413 0-2.221.168-2.709.437-.496.269-.766.732-.766 1.354 0 1.026.74 1.716 2.095 1.716.858 0 1.741-.328 2.103-1.094.05.589.252 1.026 1.018 1.026a2.09 2.09 0 0 0 .597-.084zm-1.649-2.776v.597c0 .236-.059.606-.202.858-.21.37-.782.85-1.767.85-.74 0-1.489-.294-1.489-1.144 0-.471.278-.782.69-.925.437-.151 1.136-.236 2.086-.236zm5.35 2.742l-.151-.597a2.22 2.22 0 0 1-.757.135c-.437 0-.656-.185-.757-.48-.059-.202-.067-.522-.067-.942V9.952h1.497v-.614h-1.497v-1.59h-.715v1.59h-.925v.614h.925v3.39c0 .48.008.833.101 1.186.168.589.681.824 1.27.824.437 0 .816-.076 1.077-.185zm6.276.034l-.067-.589c-.109.025-.227.034-.37.034-.185 0-.328-.067-.421-.244-.084-.143-.093-.404-.093-.707v-2.011c0-.488 0-.909-.118-1.295-.236-.824-.909-1.203-2.044-1.203-1.649 0-2.473.749-2.473 2.103l.69.042c.042-1.338.925-1.472 1.741-1.472.892 0 1.211.395 1.363.715.084.185.143.614.143 1.026v.244h-.698c-1.413 0-2.212.168-2.709.437-.488.269-.766.732-.766 1.354 0 1.026.749 1.716 2.103 1.716.858 0 1.741-.328 2.103-1.094.05.589.252 1.026 1.018 1.026a2.09 2.09 0 0 0 .597-.084zm-1.649-2.776v.597c0 .236-.059.606-.202.858-.21.37-.791.85-1.767.85-.74 0-1.497-.294-1.497-1.144 0-.471.286-.782.698-.925.437-.151 1.127-.236 2.086-.236zm3.348 2.793v-1.203c.303.799 1.152 1.338 2.221 1.338 1.59 0 2.726-1.102 2.726-3.096 0-1.926-1.026-3.087-2.583-3.087-1.203 0-2.061.673-2.347 1.464V7.075h-.707v8.143zm.017-2.986c0-1.506.967-2.414 2.17-2.414 1.169 0 2.027.883 2.027 2.456 0 1.607-.942 2.423-2.078 2.423-1.186 0-2.12-.715-2.12-2.465zm7.05 2.986v-2.986c0-.681.067-1.136.278-1.514.227-.404.681-.858 1.388-.858a2.62 2.62 0 0 1 .589.076l.143-.665a2.56 2.56 0 0 0-.673-.109c-.976 0-1.573.681-1.725 1.38V9.338h-.707v5.88zm3.92 0v-5.88h-.707v5.88zm.042-7.058V7.075h-.799v1.085zm6.932 5.098l-.707-.126c-.118.85-.841 1.556-1.935 1.556-.967 0-2.179-.606-2.179-2.465 0-1.59 1.009-2.364 2.17-2.364 1.338 0 1.783.917 1.893 1.624l.715-.135c-.135-1.27-1.068-2.162-2.599-2.162-1.624 0-2.919 1.127-2.919 3.062 0 1.952 1.178 3.104 2.869 3.104 1.523 0 2.49-.892 2.692-2.095zm2.011 1.96v-2.322l.934-.883 2.313 3.205h.866l-2.675-3.71 2.271-2.17h-.951l-2.759 2.7V7.075h-.707v8.143zm4.349-.9c.538.623 1.481 1.035 2.532 1.035 1.447 0 2.313-.631 2.313-1.716 0-.967-.547-1.405-1.741-1.649l-.766-.151c-1.035-.202-1.245-.496-1.245-1.035 0-.454.353-.942 1.422-.942.698 0 1.262.21 1.741.631l.454-.572c-.555-.522-1.295-.732-2.137-.732-1.506 0-2.221.808-2.221 1.674 0 .917.513 1.396 1.573 1.607l.732.16c1.152.236 1.472.538 1.472 1.068s-.404 1.001-1.531 1.001c-.799 0-1.582-.294-2.111-.934zm7.899-.395c.707.858 1.859 1.43 3.239 1.43 1.884 0 3.003-.808 3.003-2.271 0-1.144-.53-1.834-2.179-2.204l-1.262-.278c-1.22-.286-1.531-.757-1.531-1.472 0-.673.387-1.506 1.977-1.506 1.001 0 1.825.395 2.322.959l.522-.564c-.791-.833-1.725-1.094-2.784-1.094-1.842 0-2.835.875-2.835 2.271 0 1.035.53 1.8 1.851 2.095l1.22.286c1.59.353 1.884.875 1.884 1.59 0 .681-.412 1.481-2.128 1.481-1.152 0-2.154-.505-2.734-1.253zm8.412 3.424v-3.214c.336.707 1.06 1.22 2.187 1.22 1.59 0 2.734-1.102 2.734-3.096 0-1.926-1.052-3.071-2.591-3.071-1.211 0-2.036.648-2.33 1.363V9.338h-.707v8.009zm-.017-5.115c0-1.506.942-2.414 2.179-2.414 1.169 0 2.027.883 2.027 2.456 0 1.607-.934 2.423-2.061 2.423-1.211 0-2.145-.698-2.145-2.465zm11.676 2.97l-.076-.589a1.51 1.51 0 0 1-.362.034c-.193 0-.328-.067-.429-.244-.076-.143-.093-.404-.093-.707v-2.011c0-.488 0-.909-.118-1.295-.236-.824-.909-1.203-2.036-1.203-1.649 0-2.473.749-2.473 2.103l.681.042c.05-1.338.934-1.472 1.741-1.472.9 0 1.22.395 1.371.715.084.185.143.614.143 1.026v.244h-.698c-1.413 0-2.212.168-2.709.437s-.766.732-.766 1.354c0 1.026.74 1.716 2.095 1.716.858 0 1.741-.328 2.111-1.094.042.589.244 1.026 1.009 1.026.177 0 .429-.025.606-.084zm-1.649-2.776v.597c0 .236-.059.606-.202.858-.21.37-.791.85-1.767.85-.74 0-1.497-.294-1.497-1.144 0-.471.286-.782.698-.925.429-.151 1.127-.236 2.078-.236zm3.365 2.793v-2.986c0-.681.067-1.136.286-1.514.219-.404.681-.858 1.388-.858a2.62 2.62 0 0 1 .589.076l.143-.665c-.202-.059-.463-.109-.673-.109-.976 0-1.582.681-1.733 1.38V9.338h-.707v5.88zm4.038 0v-2.322l.934-.883 2.322 3.205h.858l-2.675-3.71 2.271-2.17h-.951l-2.759 2.7V7.075h-.707v8.143z"/><path d="M.588 23.328c.725.045 1.471.044 2.213-.004a17.59 17.59 0 0 1-.03 2.187.63.63 0 0 0 .362.616c.083.038.173.058.262.058.163 0 .319-.064.436-.177 1.62-1.57 2.979-3.39 4.024-5.389.077-.148.093-.318.043-.477.15.056.322.093.495.093.332 0 .644-.139.905-.385a21.14 21.14 0 0 0 3.896 5.153c.117.113.272.176.436.176a.62.62 0 0 0 .266-.059.63.63 0 0 0 .358-.614c-.055-.727-.066-1.457-.031-2.186.737.047 1.477.049 2.215.004.247-.016.461-.176.546-.408s.027-.494-.151-.666c-1.103-1.069-2.045-2.292-2.797-3.63.041-.046.087-.087.123-.139.245-.365.276-.822.087-1.288-.106-.261.025-.622.276-.757.447-.24.724-.629.761-1.068s-.171-.869-.571-1.179a.64.64 0 0 1-.144-.791c.265-.428.31-.902.123-1.301s-.583-.669-1.085-.74a.65.65 0 0 1-.528-.617c.012-.411-.12-.779-.371-1.038-.357-.367-.941-.468-1.485-.249a.68.68 0 0 1-.772-.275c-.262-.482-.689-.758-1.171-.758-.408 0-.792.202-1.081.569-.174.221-.566.292-.81.144-.251-.154-.522-.235-.784-.235-.654 0-1.161.48-1.261 1.193a.63.63 0 0 1-.626.521h-.051c-.492 0-.913.206-1.153.564-.245.365-.276.823-.087 1.288.106.261-.026.622-.277.757-.446.24-.724.629-.761 1.068s.171.869.57 1.179c.225.174.293.551.144.792-.266.428-.311.902-.124 1.301.138.295.391.518.715.643a16.08 16.08 0 0 1-3.504 5.055c-.179.172-.238.434-.152.667a.63.63 0 0 0 .549.408zm12.265-5.277c.596 1.089 1.3 2.113 2.115 3.047l-1.261-.078-.066-.004c-.145 0-.287.051-.397.143a.63.63 0 0 0-.225.428l-.066 1.346a19.87 19.87 0 0 1-2.313-3.249c.138.046.283.071.428.072.653 0 1.16-.479 1.261-1.193.036-.251.261-.467.524-.512zm-4.016-7.757c1.947 0 3.531 1.584 3.531 3.53s-1.584 3.531-3.531 3.531-3.531-1.584-3.531-3.531 1.584-3.53 3.531-3.53zm-4.225 7.91c.043.292.164.551.354.746.356.368.943.467 1.484.25a.67.67 0 0 1 .773.274 1.74 1.74 0 0 0 .158.237c-.251-.028-.515.096-.635.326-.733 1.402-1.631 2.712-2.675 3.902l-.066-1.346a.63.63 0 0 0-.224-.427c-.112-.093-.253-.143-.398-.144l-.064.003-1.265.079a17.48 17.48 0 0 0 2.557-3.9z" fill="#ff5009"/><path d="M29.399 23.644l-.774-.109c-.219 1.413-1.052 2.288-2.692 2.288-1.977 0-2.902-1.565-2.902-3.491 0-1.75.808-3.542 3.02-3.542 1.59 0 2.398 1.026 2.532 2.128l.766-.093c-.101-1.279-1.094-2.742-3.281-2.742-2.709 0-3.828 2.128-3.828 4.265 0 2.44 1.354 4.164 3.693 4.164 2.078 0 3.205-1.119 3.466-2.869zm6.267.951l-.698-.151c-.21.799-.917 1.413-1.977 1.413-.875 0-2.12-.471-2.128-2.263h4.829c0-2.162-1.026-3.247-2.759-3.247-1.565 0-2.827 1.161-2.827 3.062 0 1.868 1.035 3.104 2.86 3.104 1.439 0 2.414-.799 2.7-1.918zm-4.803-1.573c.118-1.346 1.009-2.019 2.061-2.019 1.396 0 1.926.909 2.011 2.019zm6.898 3.357v-2.986c0-.681.067-1.136.286-1.514.219-.404.681-.858 1.388-.858a2.62 2.62 0 0 1 .589.076l.143-.665c-.202-.059-.463-.109-.673-.109-.976 0-1.582.681-1.733 1.38v-1.203h-.707v5.88zm6.175-.05l-.16-.597a2.13 2.13 0 0 1-.749.135c-.437 0-.665-.185-.757-.48-.059-.202-.067-.522-.067-.942v-3.331h1.497v-.614h-1.497v-1.59h-.723v1.59h-.917v.614h.917v3.39c0 .48.017.833.109 1.186.168.589.681.824 1.27.824.437 0 .816-.076 1.077-.185zm1.657.05v-5.88h-.707v5.88zm.05-7.058v-1.085h-.808v1.085zm2.843 7.058v-5.266h1.38v-.614h-1.38v-.421c0-.454.076-.757.219-.942.177-.227.454-.336.824-.336a1.79 1.79 0 0 1 .589.109l.151-.673c-.151-.042-.496-.101-.841-.101-.454 0-.917.135-1.237.505-.236.261-.421.707-.421 1.439v.421h-.909v.614h.909v5.266zm3.197 0v-5.88h-.707v5.88zm.042-7.058v-1.085h-.799v1.085zm6.932 5.098l-.707-.126c-.118.85-.841 1.556-1.935 1.556-.967 0-2.179-.606-2.179-2.465 0-1.59 1.009-2.364 2.17-2.364 1.338 0 1.783.917 1.893 1.624l.715-.135c-.135-1.27-1.068-2.162-2.599-2.162-1.624 0-2.919 1.127-2.919 3.062 0 1.952 1.178 3.104 2.869 3.104 1.523 0 2.49-.892 2.692-2.095zm6.486 1.943l-.067-.589c-.109.025-.227.034-.37.034-.185 0-.328-.067-.421-.244-.084-.143-.093-.404-.093-.707v-2.011c0-.488 0-.909-.118-1.295-.236-.824-.909-1.203-2.044-1.203-1.649 0-2.473.749-2.473 2.103l.69.042c.042-1.338.925-1.472 1.741-1.472.892 0 1.211.395 1.363.715.084.185.143.614.143 1.026v.244h-.698c-1.413 0-2.212.168-2.709.437-.488.269-.766.732-.766 1.354 0 1.026.749 1.716 2.103 1.716.858 0 1.741-.328 2.103-1.094.05.589.252 1.026 1.018 1.026a2.09 2.09 0 0 0 .597-.084zm-1.649-2.776v.597c0 .236-.059.606-.202.858-.21.37-.791.85-1.767.85-.74 0-1.497-.294-1.497-1.144 0-.471.286-.782.698-.925.437-.151 1.127-.236 2.086-.236zm5.35 2.742l-.16-.597a2.13 2.13 0 0 1-.749.135c-.437 0-.665-.185-.757-.48-.059-.202-.067-.522-.067-.942v-3.331h1.497v-.614h-1.497v-1.59h-.723v1.59h-.917v.614h.917v3.39c0 .48.017.833.109 1.186.168.589.681.824 1.27.824.437 0 .816-.076 1.077-.185zm1.657.05v-5.88h-.707v5.88zm.05-7.058v-1.085h-.808v1.085zm7.193 4.122c0-1.943-1.262-3.096-2.835-3.096-1.632 0-2.995 1.161-2.995 3.071 0 1.918 1.178 3.096 2.97 3.096 1.565 0 2.86-1.178 2.86-3.071zm-.732-.008c0 1.573-1.026 2.414-2.128 2.414-1.228 0-2.229-.841-2.229-2.456 0-1.598 1.077-2.372 2.238-2.372 1.11 0 2.12.782 2.12 2.414zm2.852 2.944v-3.02c0-.589.067-1.085.294-1.455.227-.395.791-.875 1.649-.875.538 0 .917.143 1.178.412.269.294.404.791.404 1.64v3.298h.723v-3.407c0-.917-.126-1.531-.412-1.893-.362-.463-.866-.723-1.725-.723-1.052 0-1.884.614-2.111 1.329v-1.186h-.707v5.88zm8.48 0h2.011c.841 0 1.817-.135 2.414-.37 1.464-.597 2.044-2.002 2.044-3.777 0-1.725-.606-3.028-1.884-3.617-.589-.286-1.464-.379-2.414-.379h-2.17zm.74-.723v-6.696h1.565c.782 0 1.573.126 2.019.387.976.564 1.363 1.716 1.363 2.885 0 1.472-.48 2.566-1.422 3.045-.53.261-1.439.379-2.061.379zm12.131.723v-5.88h-.707v3.129c0 .555-.084.993-.32 1.371s-.782.833-1.573.833c-.614 0-.993-.185-1.237-.446-.236-.261-.387-.715-.387-1.497v-3.39h-.732v3.483c0 .875.151 1.439.412 1.792.328.463.909.74 1.691.74 1.06 0 1.851-.538 2.145-1.279v1.144zm2.608 0v-3.087c0-.555.067-1.035.303-1.413.236-.404.824-.85 1.556-.85.614 0 .883.168 1.127.421.236.236.387.749.387 1.531v3.399h.723v-3.163c0-.572.101-1.001.328-1.371.236-.395.791-.816 1.497-.816.597 0 .917.177 1.152.446.236.261.379.766.379 1.548v3.357h.715v-3.474c0-.883-.143-1.472-.387-1.817-.345-.471-.875-.732-1.657-.732-1.136 0-1.901.665-2.145 1.413-.227-.967-.875-1.413-1.884-1.413-1.018 0-1.876.589-2.095 1.321v-1.178h-.707v5.88zm10.717 2.128v-3.214c.336.707 1.06 1.22 2.187 1.22 1.59 0 2.734-1.102 2.734-3.096 0-1.926-1.052-3.071-2.591-3.071-1.211 0-2.036.648-2.33 1.363v-1.211h-.707v8.009zm-.017-5.115c0-1.506.942-2.414 2.179-2.414 1.169 0 2.027.883 2.027 2.456 0 1.607-.934 2.423-2.061 2.423-1.211 0-2.145-.698-2.145-2.465zm5.737 2.086c.538.623 1.481 1.035 2.532 1.035 1.447 0 2.322-.631 2.322-1.716 0-.967-.555-1.405-1.741-1.649l-.766-.151c-1.043-.202-1.253-.496-1.253-1.035 0-.454.353-.942 1.43-.942.69 0 1.253.21 1.741.631l.446-.572c-.555-.522-1.295-.732-2.128-.732-1.514 0-2.229.808-2.229 1.674 0 .917.522 1.396 1.582 1.607l.723.16c1.161.236 1.472.538 1.472 1.068s-.395 1.001-1.531 1.001c-.799 0-1.573-.294-2.103-.934z"/></svg>