<svg xmlns="http://www.w3.org/2000/svg" xmlns:xlink="http://www.w3.org/1999/xlink" width="876" height="530" viewBox="0 0 657 397.5" xmlns:v="https://vecta.io/nano"><style><![CDATA[.B{fill:rgb(90.979004%,42.749023%,24.308777%)}.C{fill:rgb(70.979309%,16.079712%,16.079712%)}.D{fill-opacity:1}.E{fill:rgb(67.059326%,25.099182%,34.118652%)}.F{fill:rgb(97.24884%,83.529663%,78.42865%)}.G{fill:rgb(100%,79.60968%,29.798889%)}]]></style><defs><filter id="A" x="0%" y="0%" width="100%" height="100%"><feColorMatrix in="SourceGraphic" values="0 0 0 0 1 0 0 0 0 1 0 0 0 0 1 0 0 0 1 0"/></filter><mask id="B"><g filter="url(#A)"><path d="M0 0h657v397.5H0z" fill="rgb(0%,0%,0%)" fill-opacity=".149" stroke="none"/></g></mask><clipPath id="C"><path d="M0 0h648v335H0z"/></clipPath><g id="D" clip-path="url(#C)" stroke="none" fill-rule="nonzero"><path d="M635.266 260.531c.902 17.98-14.031 33.359-30.746 34.199L47.543 322.699c-4.703.234-9.453-.57-13.723-2.187 5.77 5.461 13.512 8.465 23.688 7.957l555.16-27.875c16.453-.828 29.352-15.059 28.527-31.477l-11.41-227.246c-.383-7.555-3.594-14.187-8.293-19.176 1.473 3.324 2.18 6.945 2.363 10.594zm0 0" class="B D"/><path d="M47.41 320.094l556.457-27.941c16.453-.828 29.352-15.059 28.527-31.477l-11.41-227.242c-.824-16.418-15.086-29.285-31.535-28.461L32.992 32.914c-16.453.824-29.352 15.059-28.527 31.473l11.41 227.246c.84 16.676 15.086 29.285 31.535 28.461zm0 0" fill="rgb(98.81897%,72.938538%,19.999695%)" class="D"/><path d="M617.77 16.352c-6.203-8.832-16.703-14.574-28.453-13.984L32.859 30.309C14.844 31.211.953 46.539 1.855 64.52l11.41 227.246c.535 10.684 6.23 19.801 14.363 25.402 6.203 8.832 16.703 14.574 30.555 13.879l554.355-27.836c18.016-.906 31.906-16.23 31.004-34.211l-11.41-227.246c-.535-10.684-6.23-19.801-14.363-25.402zM15.875 291.633L4.465 64.387c-.824-16.414 12.074-30.648 28.527-31.473L589.449 4.973c16.449-.824 30.711 12.043 31.535 28.461l11.41 227.242c.824 16.418-12.074 30.648-28.527 31.477L47.41 320.094c-16.449.824-30.695-11.785-31.535-28.461zm625.32-22.516c.824 16.418-12.336 30.664-28.789 31.488L58.055 328.441c-10.461.523-18.203-2.484-23.977-7.941 4.27 1.613 8.762 2.434 13.723 2.184l556.457-27.937c18.02-.906 31.91-16.234 31.008-34.215l-11.41-227.242c-.184-3.648-1.148-7.258-2.363-10.594 4.699 4.988 7.91 11.621 8.293 19.176zm0 0" class="D F"/></g><clipPath id="E"><path d="M109 206h7v7h-7zm0 0"/></clipPath><clipPath id="F"><path d="M26.328 141.422l135.555-20.387 22.055 146.664-135.551 20.387zm0 0"/></clipPath><clipPath id="G"><path d="M26.328 141.422l135.555-20.387 22.055 146.664-135.551 20.387zm0 0"/></clipPath><clipPath id="H"><path d="M33 126h127v161H33zm0 0"/></clipPath><clipPath id="I"><path d="M26.328 141.422l135.555-20.387 22.055 146.664-135.551 20.387zm0 0"/></clipPath><clipPath id="J"><path d="M26.328 141.422l135.555-20.387 22.055 146.664-135.551 20.387zm0 0"/></clipPath><clipPath id="K"><path d="M84 181h93v58H84zm0 0"/></clipPath><clipPath id="L"><path d="M26.328 141.422l135.555-20.387 22.055 146.664-135.551 20.387zm0 0"/></clipPath><clipPath id="M"><path d="M26.328 141.422l135.555-20.387 22.055 146.664-135.551 20.387zm0 0"/></clipPath><clipPath id="N"><path d="M198.805 160h177.199v127.512H198.805zm0 0"/></clipPath><clipPath id="O"><path d="M403.473 103.348h218.727V268H403.473zm0 0"/></clipPath><clipPath id="P"><path d="M403.473 222h218.727v10H403.473zm0 0"/></clipPath><clipPath id="Q"><path d="M475 271h76v39.84h-76zm0 0"/></clipPath><clipPath id="R"><path d="M476.672 119.59h75.656v96.629h-75.656zm0 0"/></clipPath><path id="S" d="M516.012 205.648h-27.234c-1.668 0-3.023-1.352-3.023-3.02s1.355-3.02 3.023-3.02h27.234c1.672 0 3.027 1.352 3.027 3.02s-1.355 3.02-3.027 3.02"/></defs><use xlink:href="#D" mask="url(#B)" x="6" y="33"/><g clip-path="url(#E)" class="B"><g clip-path="url(#F)"><g clip-path="url(#G)"><path d="M114.234 206.73c.59.379.945 1.035 1.09 1.984.141.941-.055 1.703-.598 2.289s-1.437.969-2.68 1.156l-1.324.199-.852-5.668 1.832-.273c1.102-.168 1.945-.062 2.531.313"/></g></g></g><g clip-path="url(#H)" class="B"><g clip-path="url(#I)"><g clip-path="url(#J)"><path d="M154.891 238.363l-6.148.926a1.78 1.78 0 0 0-1.492 2.035l1.93 12.418a8.57 8.57 0 0 1-7.129 9.789l-76.543 12.008c-4.035.625-7.855-1.691-9.277-5.352-.219-.574-.395-1.172-.488-1.805l-12.273-79.187a1.03 1.03 0 0 1 .852-1.184l32.004-4.98c5.559-.875 9.34-6.078 8.477-11.645l-4.176-26.844c-.094-.562.297-1.086.852-1.168l40.578-6.371c4.672-.73 9.051 2.473 9.773 7.156l4.922 31.695c.148.969 1.051 1.633 2.02 1.488l6.152-.926c.973-.145 1.641-1.059 1.488-2.031l-5.672-36.539c-1.152-7.375-8.043-12.426-15.391-11.27l-49.754 7.797c-1.445.227-2.766.98-3.68 2.125l-37.359 46.359a5.91 5.91 0 0 0-1.238 4.641l13.52 87.195c1.148 7.367 8.039 12.418 15.387 11.27l86.18-13.195c7.301-1.449 12.328-8.355 11.18-15.723l-2.668-17.191c-.152-.969-1.055-1.637-2.023-1.492"/></g></g></g><g clip-path="url(#K)" class="B"><g clip-path="url(#L)"><g clip-path="url(#M)"><path d="M128.77 203.848l-2.156.324 1.871 12.43 1.734-.258c3.891-.586 5.516-2.969 4.887-7.16-.617-4.098-2.727-5.875-6.336-5.336zm24.469-3.68l-6.941 1.047.738 4.926 6.461-.973.496 3.301-6.461.973 1.137 7.547-3.973.598-2.871-19.09 10.914-1.641zm-15.539 15.91c-1.539 1.938-3.984 3.156-7.355 3.664l-5.391.813-2.871-19.09 5.977-.898c3.105-.469 5.645-.012 7.613 1.379 1.961 1.387 3.172 3.555 3.617 6.504.473 3.145-.059 5.688-1.59 7.629zm-19.527-3.113c-1.117 1.277-2.863 2.098-5.223 2.449l-1.727.262 1.02 6.789-4.039.609-2.871-19.09 6.086-.914c2.305-.348 4.133-.117 5.492.699 1.348.816 2.176 2.211 2.473 4.188.309 2.055-.098 3.727-1.211 5.008zm47.43-31.742L89.426 192.68c-2.852.43-4.816 3.102-4.387 5.965l5.344 35.508a5.23 5.23 0 0 0 5.941 4.402l76.18-11.457c2.852-.43 4.816-3.094 4.387-5.957l-5.344-35.508c-.43-2.859-3.09-4.84-5.945-4.41zm-36.832 22.625l-2.156.324 1.871 12.43 1.734-.258c3.891-.586 5.516-2.969 4.887-7.16-.617-4.098-2.727-5.875-6.336-5.336zm0 0l-2.156.324 1.871 12.43 1.734-.258c3.891-.586 5.516-2.969 4.887-7.16-.617-4.098-2.727-5.875-6.336-5.336"/></g></g></g><g clip-path="url(#N)" class="G"><path d="M376.004 196.531c0-19.824-16.027-35.891-35.801-35.891-5.102 0-14.344 3.02-14.344 3.02l-68.406 7.23s-14.16-8.262-22.844-8.262c-19.781 0-35.805 16.07-35.805 35.895 0 1.238.063 2.461.18 3.668 1.934 47.344 40.727 85.16 88.418 85.16 48.934 0 88.602-39.77 88.602-88.828 0-.273-.047-.527-.062-.801.016-.398.063-.789.063-1.191zm0 0"/></g><path d="M309.98 248.883l-.109 2.535-.324 2.512-.539 2.461-.746 2.391-.945 2.293-1.141 2.176-1.32 2.039-1.488 1.883-1.641 1.703a21.69 21.69 0 0 1-1.781 1.512 21.25 21.25 0 0 1-1.898 1.305c-.652.402-1.32.762-2.004 1.086s-1.379.609-2.086.855a19.79 19.79 0 0 1-2.148.617 20.05 20.05 0 0 1-2.191.371c-.738.086-1.473.125-2.215.125a19.02 19.02 0 0 1-2.211-.125 19.74 19.74 0 0 1-2.191-.371 20.11 20.11 0 0 1-2.152-.617c-.707-.246-1.402-.531-2.086-.855s-1.348-.684-2-1.086a21.89 21.89 0 0 1-1.902-1.305 22.31 22.31 0 0 1-1.777-1.512c-.574-.535-1.121-1.105-1.645-1.703l-1.488-1.883-1.316-2.039-1.141-2.176-.949-2.293-.746-2.391-.535-2.461-.328-2.512-.109-2.535.109-2.535.328-2.512.535-2.461.746-2.391.949-2.293 1.141-2.18 1.316-2.039 1.488-1.879 1.645-1.703a23.21 23.21 0 0 1 1.777-1.516l1.902-1.305a22.03 22.03 0 0 1 2-1.082c.684-.324 1.379-.609 2.086-.855a20.11 20.11 0 0 1 2.152-.617 19.75 19.75 0 0 1 2.191-.375c.734-.082 1.473-.121 2.211-.121a20.05 20.05 0 0 1 2.215.121c.738.082 1.465.207 2.191.375a19.79 19.79 0 0 1 2.148.617c.707.246 1.402.531 2.086.855a21.54 21.54 0 0 1 2.004 1.082l1.898 1.305a22.54 22.54 0 0 1 1.781 1.516c.57.535 1.117 1.105 1.641 1.703l1.488 1.879 1.32 2.039 1.141 2.18.945 2.293.746 2.391.539 2.461.324 2.512.109 2.535zm-43.425-41.969c0 7.695-4.668 13.934-10.422 13.934s-10.422-6.238-10.422-13.934 4.664-13.937 10.422-13.937 10.422 6.242 10.422 13.938zm62.543-.004c0 7.695-4.664 13.934-10.422 13.934s-10.426-6.238-10.426-13.934 4.672-13.937 10.426-13.937 10.422 6.246 10.422 13.938zm0 0" fill="rgb(39.608765%,27.839661%,10.5896%)"/><path d="M226.25 170.766c1.301-.98 5.801-2.676 8.941.266 5.305 4.961 6.594-7.551 23.332 1.586 7.656 4.172 46.852 5.016 50.551 3.172 14.031-6.988 24.848-11.484 29.039-9.109 3.254 1.844-5.07 4.992 1.016 5.707 6.219.73 6.574-2.562 11.477-1.285 8.625 2.242-5.699 12.141-5.699 12.141-22.711 18.684-101.262 4.719-115.125-4.055-5.727-3.625-5.543-6.91-3.531-8.422zm0 0" fill="rgb(94.509888%,56.469727%,12.548828%)"/><path d="M348.32 146.871l-60.918-6.809-62.863 6.809c19.055 19.16 25.246 41.367 25.246 41.367l23.125 4.66 49.516.074c-.004 0 7.973-30.211 25.895-46.102zm0 0" fill="rgb(85.099792%,18.818665%,27.839661%)"/><path d="M346.328 148.543c6.676-6.598-24.887-9.516-49.965-9.516s-43.566 5.5-43.566 5.5-26.539 4.094-22.906 8.133c5.148 5.719 11.469 16.477 11.469 16.477s24.789 12.566 43.523-3.273c13.027 7.84 31.27 5.066 39.41-8.406 0 0 6.344 2.367 12.773 2.773 0 0 4.965-7.445 9.262-11.687zm0 0" fill="rgb(75.289917%,13.729858%,20.388794%)"/><path d="M347.906 180.996c-9.113 6.594-10.898-1.32-19.203-1.32-5.812 0-6.418 3.164-14.539 6.938-4.984 2.32-12.121-3.992-16.551-3.992-5.992 0-11.555 8.117-19.383 3.816-4.379-2.406-7.75-6.578-13.672-6.422-10.188.27-9.973 4.984-19.031 3.469-23.348-3.914-22.699-12.406-22.699-12.406l-3.426 22.121h48.895l19.762 9.395 23.234-9.395h28.629s3.34-.93 5.703-1.789c8.254-2.984 9.238-15.445 2.281-10.414zm0 0" class="G"/><path d="M355.809 118.707c-1.25 0-2.434.234-3.578.57-3.582-4.414-8.977-7.293-15.102-7.293-.453 0-.883.102-1.328.133-3.828-4.32-9.352-7.098-15.57-7.098-7.844 0-14.59 4.383-18.168 10.793-1.801-4.168-5.934-7.09-10.754-7.09-3.742 0-7.031 1.785-9.18 4.52-2.648-7.68-9.84-13.23-18.398-13.23-6.895 0-12.926 3.602-16.406 9.004-.957-.152-1.918-.305-2.918-.305-7.465 0-13.867 4.246-17.16 10.41-1.059-.199-2.141-.328-3.254-.328-9.715 0-17.59 7.895-17.59 17.633s7.875 17.637 17.59 17.637c3.063 0 5.914-.832 8.41-2.223 1.961 1.473 4.367 2.383 7.012 2.383a11.35 11.35 0 0 0 2.199-.223c4.457 7.203 12.336 12.031 21.414 12.031 8.906 0 16.711-4.625 21.227-11.582 3.754 4.609 9.395 7.613 15.789 7.613 9.457 0 17.34-6.469 19.68-15.211.176.004.336.051.516.051 1.473 0 2.914-.16 4.305-.453 3.406 2.906 7.77 4.723 12.598 4.723 6.117 0 11.516-2.879 15.098-7.293 1.141.332 2.324.566 3.574.566 7.09 0 12.836-5.762 12.836-12.867s-5.754-12.871-12.84-12.871zm0 0" fill="rgb(90.979004%,34.899902%,43.139648%)"/><path d="M349.508 129.379c0 .727-.07 1.449-.215 2.16a10.99 10.99 0 0 1-.629 2.078c-.277.676-.617 1.313-1.02 1.918a11.19 11.19 0 0 1-1.375 1.68 10.88 10.88 0 0 1-1.676 1.379 10.97 10.97 0 0 1-1.91 1.023 11.04 11.04 0 0 1-2.074.629 10.76 10.76 0 0 1-2.156.215 10.76 10.76 0 0 1-2.156-.215 11.04 11.04 0 0 1-2.074-.629c-.672-.277-1.309-.621-1.91-1.023s-1.164-.863-1.676-1.379a10.89 10.89 0 0 1-1.375-1.68c-.402-.605-.742-1.242-1.023-1.918s-.484-1.363-.629-2.078-.211-1.434-.211-2.16a11.17 11.17 0 0 1 .211-2.164c.141-.715.352-1.406.629-2.078a11.17 11.17 0 0 1 1.023-1.918 10.86 10.86 0 0 1 1.375-1.676c.512-.516 1.07-.977 1.676-1.379a10.69 10.69 0 0 1 1.91-1.023 10.77 10.77 0 0 1 2.074-.633 11.06 11.06 0 0 1 4.312 0 10.77 10.77 0 0 1 2.074.633c.668.277 1.309.617 1.91 1.023s1.16.863 1.676 1.379a11.09 11.09 0 0 1 1.375 1.676c.402.605.742 1.246 1.02 1.918a11.08 11.08 0 0 1 .629 2.078 10.87 10.87 0 0 1 .215 2.164zm-52.328.711c0-6.234-5.039-11.293-11.258-11.293-1.918 0-3.699.527-5.277 1.375-1.309-3.141-4.398-5.352-8.012-5.352-2.953 0-5.559 1.488-7.129 3.75-3.492-3.254-8.137-5.293-13.281-5.293-9.145 0-16.758 6.324-18.891 14.832-1.902-1.918-4.535-3.109-7.449-3.109-5.789 0-10.484 4.707-10.484 10.512s4.695 10.512 10.484 10.512c3.664 0 6.875-1.883 8.75-4.738 2.695 5.648 7.969 9.789 14.328 10.863 2.031 3.5 5.77 5.879 10.102 5.879 5.598 0 10.262-3.941 11.43-9.195 1.688.941 3.602 1.523 5.664 1.523 5.578 0 10.227-3.914 11.414-9.145 5.43-.809 9.609-5.453 9.609-11.121zm0 0" fill="rgb(95.289612%,66.668701%,72.549438%)"/><g clip-path="url(#O)" class="C"><path d="M421.18 112.477c-4.613 0-8.367 3.754-8.367 8.379v128.781c0 4.617 3.754 8.379 8.367 8.379h183.355c4.609 0 8.363-3.762 8.363-8.379V120.855c0-4.625-3.754-8.379-8.363-8.379zm183.355 154.668H421.18c-9.645 0-17.488-7.855-17.488-17.508V120.855c0-9.656 7.844-17.512 17.488-17.512h183.355c9.641 0 17.484 7.855 17.484 17.512v128.781c0 9.652-7.844 17.508-17.484 17.508"/></g><g clip-path="url(#P)" class="C"><path d="M617.457 231.188H408.25c-2.516 0-4.559-2.043-4.559-4.566s2.043-4.566 4.559-4.566h209.207c2.52 0 4.563 2.047 4.563 4.566s-2.043 4.566-4.562 4.566"/></g><path d="M519.695 245.457c0-3.785-3.062-6.848-6.84-6.848s-6.84 3.063-6.84 6.848 3.063 6.848 6.84 6.848 6.84-3.066 6.84-6.848" class="C"/><g clip-path="url(#Q)" class="C"><path d="M534.52 286.289v-14.832h-9.125v16.551c0 1.105.402 2.172 1.129 3.004l9.344 10.691h-46.055l8.813-10.129a4.59 4.59 0 0 0 1.121-3v-17.117h-9.121v15.41l-14.27 16.402c-1.176 1.348-1.453 3.262-.715 4.891s2.363 2.676 4.152 2.676h66.125c1.789 0 3.414-1.051 4.152-2.68s.461-3.547-.719-4.895l-14.832-16.973"/></g><g clip-path="url(#R)" class="F"><path d="M547.793 119.59h-66.586a4.53 4.53 0 0 0-4.531 4.523v87.582a4.53 4.53 0 0 0 4.531 4.523h66.586a4.53 4.53 0 0 0 4.531-4.523v-87.582a4.53 4.53 0 0 0-4.531-4.523"/></g><path d="M538.184 202.629l2.883-2.879a2.24 2.24 0 0 0 .668-1.602c0-.605-.238-1.176-.664-1.602a2.26 2.26 0 0 0-1.609-.668 2.25 2.25 0 0 0-1.605.668l-2.887 2.879-2.883-2.879a2.26 2.26 0 0 0-1.609-.668 2.25 2.25 0 0 0-1.602.664 2.26 2.26 0 0 0-.668 1.605c0 .605.238 1.176.664 1.602l2.887 2.879-2.883 2.883a2.24 2.24 0 0 0-.668 1.602c0 .605.238 1.176.664 1.602s.996.664 1.605.664 1.18-.234 1.609-.664l2.883-2.879 2.887 2.879c.43.43 1 .664 1.605.664a2.24 2.24 0 0 0 2.273-2.266c0-.605-.238-1.176-.664-1.602l-2.887-2.883" class="B"/><use xlink:href="#S" class="E"/><path d="M538.184 186.023l2.883-2.883a2.24 2.24 0 0 0 .668-1.602c0-.605-.238-1.176-.664-1.602s-1-.664-1.609-.664-1.18.234-1.605.664l-2.887 2.879-2.883-2.879c-.43-.43-1-.664-1.609-.664a2.23 2.23 0 0 0-1.602.664 2.24 2.24 0 0 0-.668 1.602c0 .605.238 1.176.664 1.602l2.887 2.883-2.883 2.879a2.24 2.24 0 0 0-.668 1.602c0 .605.238 1.176.664 1.602a2.25 2.25 0 0 0 1.605.668c.609 0 1.18-.238 1.609-.664l2.883-2.883 2.887 2.883a2.27 2.27 0 0 0 1.605.664c.609 0 1.18-.238 1.605-.664a2.26 2.26 0 0 0 .668-1.605c0-.605-.238-1.176-.664-1.602l-2.887-2.879" class="B"/><use xlink:href="#S" y="-16.605" class="E"/><path d="M538.184 169.414l2.883-2.879a2.25 2.25 0 0 0 .004-3.203 2.26 2.26 0 0 0-1.609-.668c-.605 0-1.18.238-1.605.664l-2.887 2.883-2.883-2.879a2.26 2.26 0 0 0-1.609-.668 2.25 2.25 0 0 0-2.27 2.27 2.26 2.26 0 0 0 .664 1.602l2.887 2.879-2.883 2.879a2.25 2.25 0 0 0-.668 1.602c0 .609.238 1.18.664 1.605s.996.664 1.605.664 1.18-.234 1.609-.664l2.883-2.879 2.887 2.879c.43.43 1 .664 1.605.664a2.24 2.24 0 0 0 1.605-.664c.43-.426.668-.996.668-1.605s-.238-1.172-.664-1.598l-2.887-2.883" class="B"/><path d="M516.398 172.434h-27.234a3.02 3.02 0 0 1-3.023-3.02 3.02 3.02 0 0 1 3.023-3.02h27.234c1.672 0 3.027 1.352 3.027 3.02s-1.355 3.02-3.027 3.02" class="E"/><path d="M532.43 133.18a3.02 3.02 0 0 0 3.023-3.02 3.02 3.02 0 0 0-3.023-3.02h-11.652c-1.668 0-3.023 1.352-3.023 3.02v21.137c0 1.668 1.355 3.02 3.023 3.02s3.027-1.352 3.027-3.02v-7.551h6.504c1.672 0 3.027-1.352 3.027-3.02s-1.355-3.02-3.027-3.02h-6.504v-4.527h8.625" class="B"/></svg>