<svg xmlns="http://www.w3.org/2000/svg" xmlns:xlink="http://www.w3.org/1999/xlink" width="876" height="530" viewBox="0 0 657 397.5" xmlns:v="https://vecta.io/nano"><style><![CDATA[.B{fill:rgb(90.979004%,42.749023%,24.308777%)}.C{fill:rgb(0%,0%,0%)}.D{fill:rgb(98.81897%,72.938538%,19.999695%)}.E{stroke:none}.F{fill:rgb(67.059326%,25.099182%,34.118652%)}.G{fill-opacity:.298}.H{fill-rule:nonzero}.I{fill:rgb(93.728638%,45.098877%,52.159119%)}.J{fill:rgb(90.19928%,91.369629%,92.939758%)}]]></style><defs><clipPath id="A"><path d="M.414 0h656.172v397H.414zm0 0"/></clipPath><filter id="B" x="0%" y="0%" width="100%" height="100%"><feColorMatrix in="SourceGraphic" values="0 0 0 0 1 0 0 0 0 1 0 0 0 0 1 0 0 0 1 0"/></filter><mask id="C"><g filter="url(#B)"><path d="M0 0h657v397.5H0z" class="C E G"/></g></mask><clipPath id="D"><path d="M1 .051h353v352.836H1zm0 0"/></clipPath><clipPath id="E"><path d="M0 0h355v353H0z"/></clipPath><g id="F" clip-path="url(#E)"><g clip-path="url(#D)"><path d="M177.555.113l-8.656.215-8.633.637-8.594 1.059-8.527 1.48-8.449 1.898-8.344 2.309-8.219 2.715-8.078 3.117-7.914 3.508-7.734 3.891-7.531 4.27-7.316 4.629-7.078 4.984-6.824 5.328-6.555 5.656-6.27 5.969-5.973 6.27-5.652 6.555-5.328 6.824-4.984 7.078-4.633 7.316-4.266 7.531-3.895 7.734L14.594 109l-3.113 8.078-2.719 8.219-2.309 8.344-1.895 8.449-1.48 8.527-1.059 8.594-.637 8.633-.215 8.656.215 8.656.637 8.633 1.059 8.594 1.48 8.527 1.895 8.449 2.309 8.344 2.719 8.219L14.594 244l3.508 7.914 3.895 7.734 4.266 7.531 4.633 7.316 4.984 7.078 5.328 6.824 5.652 6.555 5.973 6.27 6.27 5.973 6.555 5.652 6.824 5.328 7.078 4.984 7.316 4.633 7.531 4.266 7.734 3.891 7.914 3.512 8.078 3.113 8.219 2.715 8.344 2.313 8.449 1.895 8.527 1.48 8.594 1.059 8.633.637 8.656.215 8.656-.215 8.633-.637 8.59-1.059 8.531-1.48 8.449-1.895 8.344-2.312 8.219-2.715 8.078-3.113 7.914-3.512 7.734-3.891 7.531-4.266 7.316-4.633 7.078-4.984 6.824-5.328 6.555-5.652 6.27-5.973 5.969-6.27 5.656-6.555 5.328-6.824 4.984-7.078 4.629-7.316 4.27-7.531 3.891-7.734 3.508-7.914 3.117-8.078 2.715-8.219 2.309-8.344 1.898-8.449 1.48-8.527 1.059-8.594.637-8.633.215-8.656-.215-8.656-.637-8.633-1.059-8.594-1.48-8.527-1.898-8.449-2.309-8.344-2.715-8.219-3.117-8.078-3.508-7.914-3.891-7.734-4.27-7.531-4.629-7.316-4.984-7.078-5.328-6.824-5.656-6.555-5.969-6.27-6.27-5.969-6.555-5.656-6.824-5.328-7.078-4.984-7.316-4.629-7.531-4.27-7.734-3.891-7.914-3.508-8.078-3.117-8.219-2.715-8.344-2.309-8.449-1.898-8.531-1.48-8.59-1.059-8.633-.637-8.656-.215zm0 0" fill-opacity="1" class="D E H"/></g></g><mask id="G"><g filter="url(#B)"><path d="M0 0h657v397.5H0z" class="C E G"/></g></mask><clipPath id="H"><path d="M.406.051H353.48v352.836H.406zm0 0"/></clipPath><clipPath id="I"><path d="M0 0h354v353H0z"/></clipPath><g id="J" clip-path="url(#I)"><g clip-path="url(#H)"><path d="M176.949.113l-8.656.215-8.633.637-8.594 1.059-8.527 1.48-8.449 1.898-8.344 2.309-8.219 2.715-8.078 3.117-7.914 3.508-7.734 3.891-7.531 4.27-7.316 4.629-7.078 4.984-6.824 5.328-6.555 5.656-6.27 5.969-5.969 6.27-5.656 6.555-5.328 6.824-4.984 7.078-4.633 7.316-4.266 7.531-3.891 7.734L13.988 109l-3.113 8.078-2.715 8.219-2.313 8.344-1.895 8.449-1.48 8.527-1.059 8.594-.637 8.633-.215 8.656.215 8.656.637 8.633 1.059 8.594 1.48 8.527 1.895 8.449 2.313 8.344 2.715 8.219L13.988 244l3.512 7.914 3.891 7.734 4.266 7.531 4.633 7.316 4.984 7.078 5.328 6.824 5.656 6.555 5.969 6.27 6.27 5.973 6.555 5.652 6.824 5.328 7.078 4.984 7.316 4.633 7.531 4.266 7.734 3.891 7.914 3.512 8.078 3.113 8.219 2.715 8.344 2.313 8.449 1.895 8.527 1.48 8.594 1.059 8.633.637 8.656.215 8.656-.215 8.633-.637 8.594-1.059 8.527-1.48 8.449-1.895 8.344-2.312 8.219-2.715 8.078-3.113 7.914-3.512 7.734-3.891 7.531-4.266 7.316-4.633 7.078-4.984 6.824-5.328 6.555-5.652 6.27-5.973 5.969-6.27 5.656-6.555 5.328-6.824 4.984-7.078 4.633-7.316 4.266-7.531 3.891-7.734L339.91 244l3.113-8.078 2.715-8.219 2.313-8.344 1.895-8.449 1.48-8.527 1.059-8.594.637-8.633.215-8.656-.215-8.656-.637-8.633-1.059-8.594-1.48-8.527-1.898-8.449-2.309-8.344-2.715-8.219L339.91 109l-3.512-7.914-3.891-7.734-4.27-7.531-4.629-7.316-4.984-7.078-5.328-6.824-5.656-6.555-5.969-6.27-6.27-5.969-6.555-5.656-6.824-5.328-7.078-4.984-7.316-4.629-7.531-4.27-7.734-3.891-7.914-3.508-8.078-3.117-8.219-2.715-8.344-2.309-8.449-1.898-8.527-1.48-8.594-1.059-8.633-.637-8.656-.215zm0 0" fill-opacity="1" class="D E H"/></g></g><clipPath id="K"><path d="M211 184h89.508v45H211zm0 0"/></clipPath><clipPath id="L"><path d="M126 269h106v18.734H126zm0 0"/></clipPath><clipPath id="M"><path d="M57.813 184H148v45H57.813zm0 0"/></clipPath><clipPath id="N"><path d="M156 95.977h46V118h-46zm0 0"/></clipPath><clipPath id="O"><path d="M371.125 120h210.484v177.031H371.125zm0 0"/></clipPath><clipPath id="P"><path d="M433 86.547h148.609V250H433zm0 0"/></clipPath></defs><g clip-path="url(#A)" fill="rgb(100%,100%,100%)"><path d="M.414 0h656.172v404.492H.414zm0 0"/><path d="M.414 0h656.172v397H.414zm0 0"/><path d="M.414 0h656.172v397H.414zm0 0"/></g><use xlink:href="#F" mask="url(#C)" x="295" y="22"/><use xlink:href="#J" mask="url(#G)" x="6" y="22"/><path d="M176.051 243.258h6.219V116.676h-6.219zm0 0" class="D"/><g class="B"><path d="M198.848 108.688h58.031v-6.227h-58.031zm-94.813 0h55.438v-6.227h-55.437zm0 0"/><path d="M220.082 186.77l-5.609-2.68 38.5-80.777a3.11 3.11 0 0 1 2.809-1.773c1.195 0 2.285.688 2.801 1.77l.441.926 38.059 79.855-5.609 2.68-35.691-74.891zm0 0"/></g><path d="M266.91 187.305h30.379c0 21.293-18.582 38.563-41.508 38.563s-41.52-17.27-41.52-38.562h30.535a12.63 12.63 0 0 1 1.82 8.477l-.203 1.617c-.074.207.137.418.344.418h.695v8.758a3.84 3.84 0 0 0 3.832 3.84h9.105a3.84 3.84 0 0 0 3.836-3.84v-8.758h.516a.48.48 0 0 0 .465-.488l-.137-2.66a12.49 12.49 0 0 1 1.84-7.363zm0 0" class="F"/><g clip-path="url(#K)" class="B"><path d="M255.781 228.98c-24.609 0-44.625-18.699-44.625-41.676 0-1.723 1.391-3.117 3.105-3.117h35.715v6.23H217.52c1.711 18.094 18.219 32.336 38.262 32.336s36.543-14.242 38.254-32.336h-32.309v-6.23h35.563c1.719 0 3.109 1.395 3.109 3.117 0 22.977-20.016 41.676-44.617 41.676zm0 0"/></g><path d="M264.227 197.816h-17.469c-.207 0-.418-.211-.344-.418l.203-1.617a12.63 12.63 0 0 0-1.82-8.477c-.531-.844-1.164-1.617-1.883-2.301-5.633-5.312-7.461-13.527-4.605-20.73 2.848-7.203 9.801-11.934 17.535-11.934s14.688 4.73 17.539 11.934 1.023 15.418-4.609 20.73c-.719.684-1.348 1.457-1.863 2.301a12.49 12.49 0 0 0-1.84 7.363l.137 2.66a.48.48 0 0 1-.465.488zm0 0" class="D"/><path d="M264.227 197.816v8.758a3.84 3.84 0 0 1-3.836 3.84h-9.105a3.84 3.84 0 0 1-3.832-3.84v-8.758zm0 0" class="B"/><g clip-path="url(#L)" class="B"><path d="M144.422 269.672l.504-.004h68.473l.504.004c9.762.273 17.535 8.281 17.535 18.066H126.883c.004-9.785 7.773-17.789 17.539-18.066zm0 0"/></g><path d="M213.902 269.672l-.504-.004h-68.473l-.504.004c.289-16.59 15.73-29.961 34.738-29.961s34.449 13.367 34.742 29.961zm-85.672-82.367h15.828c0 21.293-18.586 38.563-41.516 38.563s-41.512-17.27-41.512-38.562h15.7c1.445 13.152 12.539 23.109 25.75 23.109s24.305-9.957 25.75-23.109zm0 0" class="F"/><path d="M138.238 186.77l-35.699-74.891-35.687 74.891-5.613-2.68 38.496-80.781c1.129-2.363 4.484-2.363 5.613 0l38.5 80.781zm0 0" class="B"/><g clip-path="url(#M)" class="B"><path d="M102.543 228.98c-24.602 0-44.621-18.699-44.621-41.676 0-1.723 1.395-3.117 3.109-3.117h20.883v6.23H64.285c1.715 18.094 18.219 32.336 38.258 32.336s36.547-14.242 38.262-32.336h-17.758v-6.23h21.012c1.719 0 3.109 1.395 3.109 3.117 0 22.977-20.02 41.676-44.625 41.676zm0 0"/></g><g clip-path="url(#N)" class="F"><path d="M191.336 95.973h-24.352c-5.863.004-10.617 4.766-10.621 10.641a10.65 10.65 0 0 0 10.621 10.641h24.352c5.863-.004 10.621-4.77 10.621-10.641s-4.758-10.637-10.621-10.641zm0 0"/></g><path d="M128.387 184.465a25.57 25.57 0 0 1-.156 2.84c-1.445 13.152-12.539 23.109-25.75 23.109s-24.305-9.957-25.75-23.109a25.57 25.57 0 0 1-.156-2.84c0-14.332 11.598-25.949 25.906-25.949s25.906 11.617 25.906 25.949zm0 0" class="D"/><path d="M110.254 179.203h-2.211c-.152-.516-.348-1.012-.582-1.492h2.793c3.453 0 3.453-5.187 0-5.187H94.711c-3.457 0-3.457 5.188 0 5.188h4.441a4.07 4.07 0 0 1 3.152 1.492h-7.594c-3.457 0-3.457 5.188 0 5.188h7.602c-.086.105-.176.203-.27.297a4.04 4.04 0 0 1-2.891 1.199h-4.441c-2.344 0-3.484 2.867-1.781 4.48l11.117 10.523c2.512 2.379 6.07-1.395 3.563-3.77l-6.586-6.23c3.363-.695 6.066-3.195 7.023-6.5h2.207c3.453 0 3.453-5.187 0-5.187zm0 0" class="B"/><path d="M575.234 265.309c1.898.785 3.117 2.617 3.117 4.684s-1.219 3.902-3.117 4.688l-37.648 15.699v-10.191h-71.34v-6.797a40.92 40.92 0 0 0-2.309-13.59h73.648v-10.191l37.648 15.699" fill="rgb(79.998779%,81.959534%,85.099792%)"/><path d="M578.352 157.887v20.383l-8.016 2.723c-1.844 10.082-5.773 19.426-11.41 27.574l3.727 7.551-14.398 14.398-7.551-3.73a70.48 70.48 0 0 1-27.574 11.414l-2.723 8.016h-20.383l-2.719-8.016c-10.086-1.832-19.43-5.773-27.574-11.414l-5.27-3.703c3.223-3.395 5.668-7.551 7.059-12.129 10.258 9.238 23.82 14.879 38.695 14.879 15.965 0 30.379-6.449 40.836-16.922 10.457-10.457 16.918-24.867 16.918-40.832s-6.461-30.375-16.918-40.832c-10.457-10.469-24.871-16.918-40.836-16.918-19.055 0-35.973 9.234-46.512 23.473-3.262-1.395-6.715-2.375-10.391-2.785v-.027l-5.531-10.949 14.398-14.398 7.551 3.73c8.145-5.641 17.488-9.582 27.574-11.414l2.719-8.016h20.383l2.723 8.016a70.48 70.48 0 0 1 27.574 11.414l7.551-3.73 14.398 14.398-3.727 7.551c5.637 8.148 9.566 17.492 11.41 27.578l8.016 2.719" class="I"/><path d="M557.969 168.078c0 15.965-6.461 30.375-16.918 40.832-10.457 10.473-24.871 16.922-40.836 16.922-14.875 0-28.437-5.641-38.695-14.879.547-1.805.918-3.633 1.129-5.547l.199.043h3.398c2.824 0 5.371-1.156 7.203-2.988s2.988-4.379 2.988-7.203c0-3.598-1.871-6.758-4.687-8.602 3.055-5.531 4.688-11.824 4.688-18.234 0-15.5-9.344-28.809-22.734-34.621 10.539-14.238 27.457-23.473 46.512-23.473 15.965 0 30.379 6.449 40.836 16.918 10.457 10.457 16.918 24.867 16.918 40.832" fill="rgb(41.178894%,83.918762%,95.689392%)"/><path d="M507.422 160.871c1.832 1.832 2.984 4.379 2.984 7.207 0 5.641-4.551 10.191-10.191 10.191a10.18 10.18 0 1 1 0-20.383 10.18 10.18 0 0 1 7.207 2.984" class="J"/><path d="M462.848 185.063c0-7.508-6.078-13.586-13.59-13.586h-27.176c-5.031 0-9.41-2.723-11.758-6.797h-5.23a16.99 16.99 0 0 0-16.984 16.988v3.395h-3.398c-2.48 0-4.75.891-6.516 2.379a37.66 37.66 0 0 1-3.676-16.246c0-7.668 1.023-15.312 2.961-22.719a88.08 88.08 0 0 1 8.73-21.203l1.898-3.359.305.133c11.016 4.395 22.797 6.664 34.648 6.664h15.672c1.555 0 3.078.105 4.578.305 3.676.41 7.129 1.391 10.391 2.785 13.391 5.813 22.734 19.121 22.734 34.621 0 6.41-1.633 12.703-4.687 18.234-1.59-.98-3.477-1.594-5.504-1.594h-3.398" fill="rgb(39.608765%,42.749023%,47.059631%)"/><path d="M428.875 246.215l6.797 27.176-10.195 13.59-10.191-13.59 6.797-27.176h6.793" class="J"/><path d="M463.938 259.801c-2.047-5.77-5.375-10.973-9.621-15.246-2.789-2.785-5.973-5.176-9.477-7.031l-2.375 18.883-13.59-10.191 6.797 27.176-10.195 13.59-10.191-13.59 6.797-27.176-13.59 10.191-2.375-18.883c-12.738 6.859-21.406 20.34-21.406 35.867v20.383h81.535v-20.383a40.92 40.92 0 0 0-2.309-13.59" fill="rgb(70.588684%,86.669922%,49.798584%)"/><path d="M444.84 237.523l-2.375 18.883-13.59-10.191 7.273-12.129v-.039c3.051.82 5.984 1.977 8.691 3.477m-30.03-3.477v.039l7.273 12.129-13.59 10.191-2.375-18.883a39.43 39.43 0 0 1 8.691-3.477" fill="rgb(62.748718%,83.139038%,40.779114%)"/><g fill="rgb(94.119263%,81.568909%,70.588684%)"><path d="M436.148 234.047v.039l-7.273 12.129h-6.793l-7.273-12.129v-.039c3.398-.945 6.969-1.422 10.668-1.422s7.273.477 10.672 1.422m37.3-31.586c-1.832 1.832-4.379 2.988-7.203 2.988h-3.398l-.199-.043c.133-1.086.199-2.227.199-3.355v-16.988h3.398c2.027 0 3.914.613 5.504 1.594 2.816 1.844 4.688 5.004 4.688 8.602 0 2.824-1.156 5.371-2.988 7.203"/><path d="M388.109 202.051v-20.383a16.99 16.99 0 0 1 16.984-16.988h5.23c2.348 4.074 6.727 6.797 11.758 6.797h27.176c7.512 0 13.59 6.078 13.59 13.586v16.988c0 1.129-.066 2.27-.199 3.355-.211 1.914-.582 3.742-1.129 5.547-1.391 4.578-3.836 8.734-7.059 12.129-5.574 5.867-13.457 9.543-22.187 9.543h-13.59c-15.766 0-28.703-11.93-30.375-27.219-.133-1.086-.199-2.227-.199-3.355"/><path d="M384.711 205.449a10.16 10.16 0 0 1-7.203-2.988c-1.832-1.832-2.988-4.379-2.988-7.203 0-3.16 1.422-5.988 3.676-7.816 1.766-1.488 4.035-2.379 6.516-2.379h3.398v16.988c0 1.129.066 2.27.199 3.355l-.199.043h-3.398"/></g><path d="M411.891 205.449h27.176c0 3.742-1.523 7.137-3.969 9.621-2.492 2.441-5.891 3.965-9.621 3.965-7.508 0-13.586-6.078-13.586-13.586" class="I"/><g clip-path="url(#O)" class="C"><path d="M573.906 271.559l-32.922 13.723v-8.492h-71.344v-3.398c0-3.516-.449-6.914-1.234-10.191h72.578v-8.492l32.922 13.723c.637.266 1.047.875 1.047 1.563a1.69 1.69 0 0 1-1.047 1.566zm-111.059 18.82h-13.59v-13.59h-6.793v13.59h-33.973v-13.59h-6.793v13.59h-13.59v-16.988c0-12.355 6.051-23.289 15.328-30.098l2.414 19.348 10.617-7.973-4.473 17.902c-.254.992-.039 2.043.57 2.863l10.191 13.59c.652.848 1.645 1.355 2.719 1.355s2.07-.508 2.723-1.355l10.191-13.59c.609-.82.824-1.871.57-2.863l-4.473-17.902 10.617 7.973 2.414-19.348c9.277 6.809 15.328 17.742 15.328 30.098zm-44.164-61.152c-14.98 0-27.176-12.195-27.176-27.176v-20.383a13.6 13.6 0 0 1 13.586-13.59h3.41c3.094 4.129 8.031 6.793 13.578 6.793h27.176c5.629 0 10.191 4.566 10.191 10.191v16.988c0 14.98-12.195 27.176-27.176 27.176zm-33.973-47.559c-1.711 0-3.328.344-4.844.93-1.273-3.652-1.949-7.527-1.949-11.375 0-14.797 3.887-29.418 11.227-42.266l.465-.82c10.734 3.965 21.977 5.969 33.453 5.969h15.645c18.938 0 34.332 15.395 34.332 34.332 0 4.777-1.062 9.488-2.984 13.84-1.211-.359-2.469-.609-3.809-.609h-.348c-1.578-7.75-8.437-13.59-16.641-13.59h-27.176c-5.629 0-10.191-4.566-10.191-10.191v-3.398h-6.797v3.398a16.8 16.8 0 0 0 .348 3.398h-.348c-11.238 0-20.383 9.141-20.383 20.383zm-6.793 13.59a6.81 6.81 0 0 1 6.793-6.797v13.59a6.81 6.81 0 0 1-6.793-6.793zm88.328 6.793v-13.59a6.81 6.81 0 0 1 6.793 6.797 6.81 6.81 0 0 1-6.793 6.793zm-28.547 36.066c1.184.414 2.324.879 3.453 1.395l-1.328 10.656-6.465-4.828zm-12.965 11.492h1.488l5.758 23.039-6.504 8.664-6.5-8.664zm.742-13.586c1.805 0 3.559.172 5.297.422l-3.82 6.371h-2.949l-3.82-6.371c1.738-.25 3.488-.422 5.293-.422zm-12.219 2.094l4.34 7.223-6.465 4.828-1.328-10.656c1.129-.516 2.27-.98 3.453-1.395zm163.262 24.035l-42.332-17.637v11.891H466.23c-4.164-9.969-11.914-18.062-21.59-22.746 10.578-4.152 18.605-13.441 20.914-24.816h.691a13.6 13.6 0 0 0 13.586-13.586c0-3.703-1.5-7.062-3.914-9.516 2.523-5.414 3.914-11.32 3.914-17.305 0-22.68-18.445-41.125-41.125-41.125h-15.645c-11.492 0-22.719-2.164-33.691-6.555-1.555-.625-3.359 0-4.207 1.473l-1.926 3.355c-7.922 13.883-12.113 29.66-12.113 45.637 0 5.281 1.102 10.59 3.105 15.5-1.914 2.336-3.105 5.281-3.105 8.535a13.6 13.6 0 0 0 13.586 13.586h.68c2.32 11.375 10.348 20.664 20.926 24.816-14.77 7.152-25 22.242-25 39.73v23.781h88.324v-13.59h64.547v11.891l42.332-17.637c3.188-1.324 5.23-4.406 5.23-7.844a8.46 8.46 0 0 0-5.23-7.84"/></g><path d="M425.477 215.641c-4.43 0-8.211-2.84-9.617-6.797h19.227c-1.406 3.957-5.187 6.797-9.609 6.797zm16.988-10.191v-3.398h-33.973v3.398c0 9.367 7.617 16.984 16.984 16.984s16.988-7.617 16.988-16.984m-27.179-10.192h6.797c0-7.5-6.094-13.59-13.59-13.59s-13.59 6.09-13.59 13.59h6.797c0-3.742 3.039-6.797 6.793-6.797a6.81 6.81 0 0 1 6.793 6.797m27.18-6.797a6.81 6.81 0 0 1 6.793 6.797h6.797c0-7.5-6.094-13.59-13.59-13.59a13.6 13.6 0 0 0-13.59 13.59h6.797a6.81 6.81 0 0 1 6.793-6.797m57.75 40.766a61.05 61.05 0 0 1-40.965-15.75l4.555-5.043c9.992 9.023 22.93 14 36.41 14 29.98 0 54.355-24.379 54.355-54.355s-24.375-54.355-54.355-54.355c-17.184 0-33.531 8.27-43.762 22.109l-5.469-4.035c11.504-15.578 29.898-24.867 49.23-24.867 33.723 0 61.152 27.43 61.152 61.148s-27.43 61.148-61.152 61.148" class="C"/><g clip-path="url(#P)" class="C"><path d="M512.852 249.609h-25.27l-2.852-8.465c-9.727-2.043-18.777-5.918-26.926-11.559l-5.293-3.73 3.914-5.559 5.266 3.715c7.883 5.441 16.723 9.105 26.238 10.844l1.977.355 2.559 7.605h15.5l2.563-7.605 1.977-.355c9.516-1.738 18.355-5.402 26.262-10.855l1.648-1.141 7.176 3.543 10.949-10.961-3.543-7.168 1.141-1.645c5.469-7.91 9.117-16.762 10.855-26.262l.359-1.977 7.602-2.562v-15.5l-7.602-2.562-.359-1.977c-1.738-9.516-5.387-18.352-10.855-26.262l-1.141-1.645 3.543-7.164-10.949-10.965-7.176 3.543-1.648-1.141c-7.906-5.453-16.746-9.117-26.262-10.855l-1.977-.355-2.562-7.605h-15.5l-2.559 7.605-1.977.355c-9.516 1.738-18.355 5.402-26.262 10.855l-1.648 1.141-7.18-3.543-10.934 10.938 4.434 8.758-6.066 3.066-6.66-13.141 17.875-17.875 7.988 3.957c7.711-5.043 16.191-8.547 25.254-10.445l2.852-8.465h25.27l2.852 8.465c9.063 1.898 17.543 5.402 25.254 10.445l7.988-3.957 17.848 17.863-3.953 7.977a73.49 73.49 0 0 1 10.441 25.254l8.469 2.852v25.266l-8.469 2.855a73.5 73.5 0 0 1-10.441 25.25l3.953 7.977-17.848 17.863-7.988-3.957c-7.711 5.043-16.191 8.547-25.254 10.445l-2.852 8.465"/></g><g class="C"><path d="M500.215 161.285a6.81 6.81 0 0 0-6.793 6.793 6.81 6.81 0 0 0 6.793 6.793 6.81 6.81 0 0 0 6.797-6.793 6.81 6.81 0 0 0-6.797-6.793zm0 20.383c-7.496 0-13.586-6.094-13.586-13.59s6.09-13.59 13.586-13.59 13.59 6.094 13.59 13.59-6.09 13.59-13.59 13.59m3.398-54.355h-6.793v-16.984h6.793v16.984m0 98.519h-6.793v-16.988h6.793v16.988m35.035-14.519l-12.012-12.008 4.805-4.805 12.008 12.008-4.801 4.805"/><path d="M557.969 171.477h-16.984v-6.797h16.984v6.797m-26.528-29.821l-4.805-4.805 12.012-12.008 4.801 4.805-12.008 12.008m-27.828 53.602h-6.793V178.27h6.793v16.988m6.211-31.985l-4.805-4.801 16.574-16.578 4.805 4.805-16.574 16.574"/></g></svg>